<svg width="580" height="400" viewBox="0 0 580 400" fill="none" xmlns="http://www.w3.org/2000/svg">
<path d="M31.1697 237.24L29.3746 226.465H22.9314C21.9703 222.758 18.6258 220 14.6198 220C9.86596 220 6 223.866 6 228.62C6 233.374 9.86596 237.24 14.6198 237.24C18.6258 237.24 21.9703 234.481 22.9335 230.775H25.722L26.7995 237.24H26.7176L37.8608 293.302C32.5488 293.708 28.1248 297.798 27.6033 302.944C27.2973 305.971 28.2928 309.003 30.3357 311.257C32.3808 313.518 35.2942 314.817 38.3241 314.817H42.634C42.634 321.948 48.4329 327.747 55.5636 327.747C62.6943 327.747 68.4932 321.948 68.4932 314.817H92.1976C92.1976 321.948 97.9965 327.747 105.127 327.747C112.258 327.747 118.057 321.948 118.057 314.817H126.677C127.868 314.817 128.832 313.854 128.832 312.662C128.832 311.471 127.868 310.507 126.677 310.507H117.303C115.523 305.493 110.745 301.888 105.127 301.888C99.5093 301.888 94.7318 305.493 92.9518 310.507H67.739C65.959 305.493 61.1815 301.888 55.5636 301.888C49.9457 301.888 45.1682 305.493 43.3882 310.507H38.3241C36.5096 310.507 34.7641 309.727 33.5315 308.368C32.2881 306.991 31.7041 305.219 31.8916 303.377C32.2191 300.125 35.2231 297.58 38.7292 297.58H40.4338C40.4639 297.58 40.4876 297.58 40.5178 297.58H124.548C130.476 297.578 135.296 292.757 135.296 286.831V237.24H31.1697ZM14.6198 232.93C12.2429 232.93 10.3099 230.997 10.3099 228.62C10.3099 226.243 12.2429 224.31 14.6198 224.31C16.9967 224.31 18.9296 226.243 18.9296 228.62C18.9296 230.997 16.9967 232.93 14.6198 232.93Z" fill="white"/>
<path d="M487.099 322.062C492.665 322.062 497.177 317.55 497.177 311.984C497.177 306.418 492.665 301.906 487.099 301.906C481.533 301.906 477.021 306.418 477.021 311.984C477.021 317.55 481.533 322.062 487.099 322.062Z" fill="white"/>
<path d="M537.488 322.062C543.054 322.062 547.566 317.55 547.566 311.984C547.566 306.418 543.054 301.906 537.488 301.906C531.922 301.906 527.41 306.418 527.41 311.984C527.41 317.55 531.922 322.062 537.488 322.062Z" fill="white"/>
<path d="M488.595 264.389L498.673 271.108C499.245 271.49 499.893 271.672 500.533 271.672C501.619 271.672 502.683 271.147 503.331 270.176C504.359 268.632 503.943 266.546 502.399 265.517L493.817 259.796V251.516C493.817 249.66 492.313 248.156 490.458 248.156C488.603 248.156 487.099 249.66 487.099 251.516V261.594C487.123 261.594 487.137 261.594 487.161 261.593C487.163 262.677 487.625 263.743 488.595 264.389Z" fill="white"/>
<path d="M563.406 274.934L553.328 258.137C552.114 256.113 549.927 254.875 547.567 254.875H524.051V248.156C524.051 244.446 521.043 241.437 517.333 241.437H517.269C511.133 233.296 501.415 228 490.458 228C479.501 228 469.783 233.296 463.647 241.437H463.583C459.873 241.437 456.864 244.446 456.864 248.156V308.624C456.864 312.335 459.873 315.343 463.583 315.343H470.64C470.42 314.257 470.302 313.134 470.302 311.984C470.302 302.707 477.822 295.187 487.098 295.187C496.375 295.187 503.895 302.707 503.895 311.984C503.895 313.134 503.777 314.257 503.557 315.343H517.333H520.692V311.984C520.692 302.707 528.212 295.187 537.489 295.187C546.765 295.187 554.285 302.707 554.285 311.984V315.343H557.645C561.355 315.343 564.363 312.335 564.363 308.624V278.39C564.363 277.173 564.032 275.977 563.406 274.934ZM490.458 241.437C501.573 241.437 510.614 250.479 510.614 261.593C510.614 272.708 501.572 281.75 490.458 281.75C479.343 281.75 470.302 272.708 470.302 261.593C470.302 250.479 479.343 241.437 490.458 241.437ZM550.926 281.75H530.77V278.39V264.953H544.207L550.926 278.39V281.75Z" fill="white"/>
<path d="M269.04 268.827C268.107 268.827 267.22 269.238 266.617 269.95C266.014 270.662 265.754 271.604 265.908 272.525L273.768 319.684C274.023 321.216 275.348 322.339 276.9 322.339H313.58C315.133 322.339 316.458 321.216 316.713 319.684L324.573 272.525C324.727 271.604 324.467 270.662 323.863 269.95C323.26 269.237 322.374 268.827 321.44 268.827H319.953C320.482 266.866 320.606 264.425 320.224 262.609L318.201 252.986C318.005 252.054 318.166 250.204 318.52 249.319L326.023 230.572C326.675 228.944 325.883 227.095 324.255 226.444L316.221 223.228C314.592 222.577 312.744 223.368 312.092 224.996L304.588 243.743C304.234 244.627 303.073 246.078 302.288 246.618L294.185 252.187C292.348 253.449 290.414 255.867 289.586 257.935L285.227 268.827H269.04ZM299.108 295.027H285.438L287.122 275.178H297.545L299.108 295.027ZM305.726 297.975L303.916 275.178H317.692L310.89 315.987H279.59L272.789 275.178H280.748L278.817 297.934C278.742 298.82 279.042 299.697 279.643 300.351C280.245 301.006 281.093 301.378 281.982 301.378H302.544C302.547 301.378 302.551 301.378 302.551 301.378C304.305 301.378 305.726 299.729 305.726 297.975ZM292.069 268.827L295.483 260.296C295.837 259.412 296.997 257.961 297.783 257.421L305.887 251.852C307.723 250.59 309.657 248.172 310.485 246.103L316.809 230.305L318.947 231.161L312.624 246.958C311.795 249.028 311.527 252.113 311.985 254.294L314.008 263.916C314.204 264.848 314.043 266.699 313.69 267.583L313.192 268.827H292.069Z" fill="white"/>
<path d="M107.356 118.609L121.237 80.6507H128.504L142.385 118.609H135.499L124.816 88.2423L114.134 118.609H107.356ZM113.537 109.661L115.273 104.51H133.98L135.716 109.661H113.537Z" fill="white"/>
<path d="M147.607 118.609V80.6507H159.862C164.272 80.6507 167.905 81.4279 170.761 82.9824C173.653 84.5369 175.786 86.742 177.159 89.5979C178.569 92.4176 179.274 95.7796 179.274 99.6838C179.274 103.516 178.569 106.86 177.159 109.716C175.786 112.535 173.653 114.722 170.761 116.277C167.905 117.831 164.272 118.609 159.862 118.609H147.607ZM154.114 113.078H159.536C162.826 113.078 165.411 112.553 167.29 111.505C169.206 110.42 170.562 108.884 171.357 106.896C172.189 104.871 172.604 102.467 172.604 99.6838C172.604 96.8641 172.189 94.4601 171.357 92.4719C170.562 90.4474 169.206 88.893 167.29 87.8085C165.411 86.6878 162.826 86.1275 159.536 86.1275H154.114V113.078Z" fill="white"/>
<path d="M185.628 118.609V80.6507H193.328L205.474 105.161L217.513 80.6507H225.267V118.609H218.76V91.8212L208.023 113.294H202.926L192.135 91.8754V118.609H185.628Z" fill="white"/>
<path d="M232.969 118.609V80.6507H239.476V118.609H232.969Z" fill="white"/>
<path d="M247.108 118.609V80.6507H253.615L271.889 108.089V80.6507H278.396V118.609H271.889L253.615 91.2247V118.609H247.108Z" fill="white"/>
<path d="M299.268 118.609V80.6507H305.775V113.511H322.694V118.609H299.268Z" fill="white"/>
<path d="M342.885 119.259C339.234 119.259 335.998 118.446 333.178 116.819C330.395 115.156 328.208 112.861 326.617 109.932C325.026 106.968 324.231 103.534 324.231 99.6296C324.231 95.7615 325.026 92.3634 326.617 89.4352C328.208 86.4709 330.395 84.1573 333.178 82.4944C335.998 80.8315 339.234 80 342.885 80C346.608 80 349.88 80.8315 352.7 82.4944C355.519 84.1573 357.706 86.4709 359.261 89.4352C360.815 92.3634 361.593 95.7615 361.593 99.6296C361.593 103.534 360.815 106.968 359.261 109.932C357.706 112.861 355.519 115.156 352.7 116.819C349.88 118.446 346.608 119.259 342.885 119.259ZM342.939 113.403C345.361 113.403 347.476 112.861 349.283 111.776C351.091 110.655 352.483 109.065 353.459 107.004C354.435 104.944 354.923 102.485 354.923 99.6296C354.923 96.7737 354.435 94.3155 353.459 92.255C352.483 90.1944 351.091 88.6218 349.283 87.5373C347.476 86.4167 345.361 85.8563 342.939 85.8563C340.517 85.8563 338.402 86.4167 336.595 87.5373C334.787 88.6218 333.377 90.1944 332.365 92.255C331.389 94.3155 330.901 96.7737 330.901 99.6296C330.901 102.485 331.389 104.944 332.365 107.004C333.377 109.065 334.787 110.655 336.595 111.776C338.402 112.861 340.517 113.403 342.939 113.403Z" fill="white"/>
<path d="M384.489 119.259C380.91 119.259 377.765 118.446 375.054 116.819C372.379 115.192 370.3 112.933 368.818 110.041C367.336 107.113 366.595 103.697 366.595 99.7923C366.595 95.9242 367.354 92.508 368.872 89.5437C370.391 86.5432 372.56 84.2115 375.379 82.5486C378.235 80.8495 381.615 80 385.52 80C389.93 80 393.581 81.0664 396.473 83.1993C399.401 85.296 401.299 88.2242 402.167 91.9838H394.846C394.304 90.104 393.238 88.6399 391.647 87.5916C390.056 86.5432 387.996 86.019 385.465 86.019C382.899 86.019 380.693 86.5794 378.85 87.7C377.042 88.7845 375.65 90.3751 374.674 92.4719C373.735 94.5324 373.265 96.9906 373.265 99.8465C373.265 102.702 373.735 105.161 374.674 107.221C375.65 109.282 377.024 110.854 378.796 111.939C380.567 112.987 382.646 113.511 385.031 113.511C388.574 113.511 391.249 112.517 393.057 110.529C394.864 108.541 395.931 105.956 396.256 102.775H386.441V97.8402H402.817V118.609H396.853L396.31 113.403C395.479 114.632 394.521 115.698 393.436 116.602C392.352 117.47 391.069 118.139 389.586 118.609C388.14 119.042 386.441 119.259 384.489 119.259Z" fill="white"/>
<path d="M409.838 118.609V80.6507H416.345V118.609H409.838Z" fill="white"/>
<path d="M423.976 118.609V80.6507H430.483L448.757 108.089V80.6507H455.264V118.609H448.757L430.483 91.2247V118.609H423.976Z" fill="white"/>
</svg>
