<?xml version="1.0" encoding="UTF-8"?>
<svg width="18px" height="24px" viewBox="0 0 18 24" version="1.1" xmlns="http://www.w3.org/2000/svg" xmlns:xlink="http://www.w3.org/1999/xlink">
    <!-- Generator: Sketch 63.1 (92452) - https://sketch.com -->
    <title>change_password 2</title>
    <desc>Created with Sketch.</desc>
    <g id="Page-1" stroke="none" stroke-width="1" fill="none" fill-rule="evenodd">
        <g id="Artboard" transform="translate(-1167.000000, -79.000000)" fill="#EB3535" fill-rule="nonzero">
            <g id="Group-3" transform="translate(1151.000000, 65.000000)">
                <g id="change_password-2" transform="translate(16.000000, 14.000000)">
                    <path d="M9,0 C12.309,0 15,2.691 15,6 L15,9 L15.75,9 C16.99,9 18,10.009 18,11.25 L18,21.75 C18,22.991 16.99,24 15.75,24 L2.25,24 C1.01,24 0,22.991 0,21.75 L0,11.25 C0,10.009 1.01,9 2.25,9 L3,9 L3,6 C3,2.691 5.691,0 9,0 Z M15.75,10.5 L2.25,10.5 C1.837,10.5 1.5,10.836 1.5,11.25 L1.5,21.75 C1.5,22.164 1.837,22.5 2.25,22.5 L15.75,22.5 C16.163,22.5 16.5,22.164 16.5,21.75 L16.5,11.25 C16.5,10.836 16.163,10.5 15.75,10.5 Z M9,13 C10.103,13 11,13.897 11,15 C11,15.8376629 10.4826553,16.5565154 9.7506289,16.8538943 L9.75,19.25 C9.75,19.664 9.414,20 9,20 C8.586,20 8.25,19.664 8.25,19.25 L8.25038232,16.8543048 C7.5178212,16.5571773 7,15.8380486 7,15 C7,13.897 7.897,13 9,13 Z M9,14.5 C8.725,14.5 8.5,14.724 8.5,15 C8.5,15.276 8.725,15.5 9,15.5 C9.275,15.5 9.5,15.276 9.5,15 C9.5,14.724 9.275,14.5 9,14.5 Z M9,1.5 C6.519,1.5 4.5,3.519 4.5,6 L4.5,9 L13.5,9 L13.5,6 C13.5,3.519 11.481,1.5 9,1.5 Z" id="change_password"></path>
                </g>
            </g>
        </g>
    </g>
</svg>