<?xml version="1.0" encoding="UTF-8"?>
<svg width="24px" height="24px" viewBox="0 0 24 24" version="1.1" xmlns="http://www.w3.org/2000/svg" xmlns:xlink="http://www.w3.org/1999/xlink">
    <!-- Generator: Sketch 63.1 (92452) - https://sketch.com -->
    <title>covid</title>
    <desc>Created with Sketch.</desc>
    <g id="Page-1" stroke="none" stroke-width="1" fill="none" fill-rule="evenodd">
        <g id="Artboard" transform="translate(-192.000000, -724.000000)" fill="#FF8527" fill-rule="nonzero">
            <path d="M203.727884,724.045194 C204.074604,723.927879 204.457478,724.044074 204.680755,724.334372 C204.904033,724.62467 204.918368,725.024915 204.716433,725.330475 C204.541012,725.581217 204.450918,725.881845 204.459492,726.187843 C204.482188,726.683831 204.611943,727.874716 204.687313,728.540462 C204.73076,728.912153 205.010011,729.212693 205.377199,729.282944 C206.828851,729.579581 208.144759,730.340765 209.126394,731.451657 C209.371428,731.732252 209.769186,731.822794 210.111334,731.675859 C210.710863,731.414362 211.781878,730.941952 212.224245,730.717321 C212.511885,730.559542 212.743847,730.316707 212.888437,730.021995 C213.050693,729.720649 213.376472,729.544808 213.717141,729.574697 C214.057809,729.604586 214.348065,729.834476 214.455483,730.159482 C214.562901,730.484489 214.46689,730.842312 214.211254,731.0697 C214.040819,731.21776 213.820017,731.294508 213.594596,731.284042 C213.284908,731.256705 212.974695,731.330393 212.710291,731.494097 C212.250367,731.790318 211.541638,732.26873 210.777239,732.868888 C210.492417,733.096002 210.381277,733.47802 210.499743,733.82271 C210.970789,735.235939 210.970789,736.764056 210.499743,738.177285 C210.382017,738.5216 210.493078,738.902831 210.777239,739.129821 C211.364349,739.591086 212.006273,740.047206 212.684597,740.486179 C212.961245,740.658243 213.285146,740.738365 213.610012,740.715096 C213.771828,740.706213 213.932638,740.7456 214.072078,740.827411 C214.295097,740.95502 214.449123,741.176097 214.49169,741.429692 C214.534258,741.683287 214.46087,741.942617 214.291762,742.136184 C214.102811,742.350326 213.820345,742.457142 213.537152,742.421545 C213.253959,742.385948 213.006643,742.212538 212.876446,741.95828 C212.746322,741.67755 212.528738,741.44665 212.256362,741.30025 C211.819135,741.071761 210.724995,740.58992 210.111334,740.323279 C209.76907,740.175835 209.370848,740.266829 209.126394,740.548338 C208.078318,741.737355 206.648623,742.522997 205.083858,742.76978 C204.896661,742.800451 204.751402,742.949863 204.725854,743.138019 C204.566122,744.171149 204.49375,745.13826 204.461205,745.768426 C204.451034,746.097482 204.545174,746.421316 204.730136,746.693527 C204.815136,746.828788 204.859713,746.985565 204.858606,747.14536 C204.857419,747.511839 204.623672,747.837042 204.276929,747.954622 C203.930186,748.072203 203.547126,747.956161 203.323688,747.665853 C203.10025,747.375544 203.085845,746.975168 203.287841,746.669521 C203.463166,746.417441 203.553213,746.115767 203.544782,745.808723 C203.521658,745.309305 203.392331,744.12185 203.316961,743.458675 C203.273496,743.087535 202.994908,742.787323 202.62836,742.716623 C201.17651,742.419927 199.860441,741.658586 198.878736,740.54748 C198.714864,740.360953 198.478957,740.253723 198.230817,740.252974 C198.114579,740.253085 197.999593,740.27701 197.89294,740.323279 C197.293411,740.584776 196.222396,741.057186 195.780029,741.281817 C195.49223,741.439526 195.260112,741.682368 195.115409,741.977142 C195.039911,742.119018 194.925513,742.236362 194.785668,742.315374 C194.404614,742.533269 193.920688,742.42759 193.664908,742.070624 C193.409129,741.713659 193.46426,741.220912 193.792592,740.929438 C193.962932,740.780922 194.184054,740.704116 194.409678,740.715096 C194.718889,740.741473 195.028396,740.667847 195.292698,740.505041 C195.752194,740.209248 196.460494,739.729979 197.226178,739.129821 C197.510817,738.902773 197.621939,738.520992 197.503674,738.176428 C197.032914,736.763592 197.032914,735.235974 197.503674,733.823139 C197.622305,733.47841 197.511345,733.096252 197.226606,732.868888 C196.641638,732.409338 195.999714,731.953218 195.319677,731.512959 C195.043413,731.339983 194.719211,731.259786 194.394261,731.284042 C194.233309,731.292122 194.073491,731.253094 193.934337,731.171727 C193.711318,731.044118 193.557292,730.82304 193.514725,730.569446 C193.472158,730.315851 193.545545,730.056521 193.714653,729.862953 C193.903668,729.649759 194.185543,729.543578 194.468069,729.579145 C194.750595,729.614712 194.99743,729.787452 195.127828,730.040857 C195.2585,730.321886 195.476675,730.552925 195.749625,730.699316 C196.191563,730.929949 197.283562,731.410504 197.895081,731.676288 C198.236761,731.822677 198.63376,731.731765 198.87788,731.451229 C199.860005,730.340122 201.176291,729.578679 202.62836,729.281658 C202.994437,729.210676 203.27257,728.910753 203.316105,728.540034 C203.390189,727.889291 203.518232,726.724127 203.543497,726.231998 C203.55335,725.902251 203.459096,725.577789 203.274138,725.304753 C203.189317,725.169729 203.144748,725.013278 203.145667,724.853778 C203.147223,724.487406 203.381163,724.162509 203.727884,724.045194 Z M208.400108,742.331236 C208.719143,743.095151 209.042032,743.766042 209.275848,744.225592 C209.434342,744.516921 209.679293,744.751794 209.976869,744.897768 C210.116904,744.972784 210.232637,745.086259 210.310463,745.224855 C210.492675,745.542485 210.453196,745.940911 210.2122,746.216518 C209.971205,746.492126 209.581925,746.584038 209.2433,746.445285 C208.904675,746.306531 208.691501,745.967759 208.712719,745.602097 C208.739955,745.293254 208.666159,744.983918 208.502456,744.720722 C208.272494,744.360627 207.836551,743.703883 207.282844,742.979835 C207.672829,742.795484 208.046577,742.578514 208.400108,742.331236 Z M199.602881,742.331664 C199.957184,742.578179 200.331484,742.794563 200.721859,742.978549 C200.222537,743.634436 199.803723,744.251313 199.522801,744.684712 C199.349889,744.96747 199.269077,745.297051 199.291554,745.627818 C199.296746,745.786398 199.256954,745.943206 199.176787,746.08008 C198.992915,746.396559 198.628581,746.561239 198.269837,746.490026 C197.911092,746.418812 197.637103,746.127419 197.587784,745.764649 C197.538465,745.40188 197.724701,745.047787 198.051386,744.883193 C198.331564,744.752612 198.561798,744.534473 198.707442,744.261601 C198.945969,743.801623 199.276994,743.122587 199.602881,742.331664 Z M204.430372,736.428253 C203.011326,736.428253 201.860963,737.579824 201.860963,739.000359 C201.860963,740.420894 203.011326,741.572465 204.430372,741.572465 C205.84883,741.571047 206.998364,740.420306 206.99978,739.000359 C206.99978,737.579824 205.849417,736.428253 204.430372,736.428253 Z M204.430372,737.285622 C205.376402,737.285622 206.143311,738.053336 206.143311,739.000359 C206.143311,739.947382 205.376402,740.715096 204.430372,740.715096 C203.484342,740.715096 202.717433,739.947382 202.717433,739.000359 C202.717433,738.053336 203.484342,737.285622 204.430372,737.285622 Z M199.291554,735.570885 C198.582032,735.570885 198.00685,736.14667 198.00685,736.856937 C198.00685,737.567205 198.582032,738.14299 199.291554,738.14299 C200.001077,738.14299 200.576259,737.567205 200.576259,736.856937 C200.576259,736.14667 200.001077,735.570885 199.291554,735.570885 Z M199.291554,736.428253 C199.528062,736.428253 199.719789,736.620182 199.719789,736.856937 C199.719789,737.093693 199.528062,737.285622 199.291554,737.285622 C199.055047,737.285622 198.86332,737.093693 198.86332,736.856937 C198.86332,736.620182 199.055047,736.428253 199.291554,736.428253 Z M214.687023,735.269091 C215.04938,735.056337 215.511447,735.129778 215.790584,735.444423 C216.072332,735.769593 216.069552,736.253484 215.784088,736.575389 C215.498623,736.897295 215.018977,736.957413 214.663042,736.7159 C214.40951,736.539605 214.106137,736.449444 213.797579,736.45869 C213.371486,736.477981 212.586103,736.527708 211.682956,736.645596 C211.700514,736.431683 211.710363,736.216483 211.710363,735.999569 C211.710363,735.782369 211.701084,735.566884 211.682528,735.353113 C212.4996,735.459427 213.24173,735.513441 213.755612,735.540448 C214.08675,735.54941 214.412404,735.454534 214.687023,735.269091 Z M192.215492,735.421109 C192.50229,735.097155 192.985327,735.038019 193.34166,735.283237 C193.594898,735.460145 193.898478,735.550367 194.207123,735.540448 C194.722718,735.517299 195.47427,735.465 196.321318,735.35397 C196.30376,735.567455 196.294339,735.781797 196.294339,735.999569 C196.294339,736.21734 196.304189,736.431683 196.321746,736.646025 C195.504674,736.539711 194.762972,736.485697 194.248662,736.460833 C193.917682,736.453092 193.592391,736.547863 193.317251,736.73219 C192.95496,736.945296 192.492655,736.871817 192.214118,736.556858 C191.928105,736.23221 191.928694,735.745063 192.215492,735.421109 Z M207.428015,733.427463 C206.718493,733.427463 206.143311,734.003249 206.143311,734.713516 C206.143311,735.423783 206.718493,735.999569 207.428015,735.999569 C208.137538,735.999569 208.712719,735.423783 208.712719,734.713516 C208.712719,734.003249 208.137538,733.427463 207.428015,733.427463 Z M202.717433,731.284042 C201.534895,731.284042 200.576259,732.243684 200.576259,733.427463 C200.577675,734.610655 201.535482,735.569467 202.717433,735.570885 C203.89997,735.570885 204.858606,734.611242 204.858606,733.427463 C204.858606,732.243684 203.89997,731.284042 202.717433,731.284042 Z M207.427587,734.284832 C207.664094,734.284832 207.855822,734.47676 207.855822,734.713516 C207.855822,734.950272 207.664094,735.1422 207.427587,735.1422 C207.191079,735.1422 206.999352,734.950272 206.999352,734.713516 C206.999352,734.47676 207.191079,734.284832 207.427587,734.284832 Z M202.717004,732.14141 C203.426527,732.14141 204.001709,732.717196 204.001709,733.427463 C204.001709,734.137731 203.426527,734.713516 202.717004,734.713516 C202.007482,734.713516 201.4323,734.137731 201.4323,733.427463 C201.4323,732.717196 202.007482,732.14141 202.717004,732.14141 Z M197.792202,725.784682 C198.033276,725.509088 198.422631,725.417262 198.761251,725.55614 C199.09987,725.695019 199.312941,726.033918 199.291554,726.399613 C199.264854,726.707602 199.33863,727.015955 199.501818,727.278416 C199.78017,727.713959 200.201553,728.340267 200.722287,729.02016 C200.332114,729.204674 199.958095,729.421635 199.604166,729.668759 C199.285131,728.904415 198.96267,728.233096 198.728426,727.773546 C198.570065,727.482372 198.325252,727.247638 198.027834,727.101798 C197.888028,727.0271 197.772217,726.914289 197.69381,726.776427 C197.511594,726.45875 197.551127,726.060276 197.792202,725.784682 Z M209.617173,725.493688 L209.736747,725.508806 C210.095615,725.58004 210.369658,725.871602 210.418853,726.234515 C210.468047,726.597429 210.281529,726.951552 209.9546,727.115945 C209.673909,727.246403 209.443092,727.464525 209.296832,727.737537 C209.058305,728.197515 208.727279,728.876551 208.401393,729.667473 C208.04709,729.420959 207.67279,729.204575 207.282415,729.020589 C207.781737,728.364702 208.200551,727.747825 208.481473,727.314425 C208.654384,727.031668 208.735197,726.702087 208.712719,726.37132 C208.708175,726.212531 208.748713,726.055709 208.829628,725.919058 C209.013434,725.602394 209.377878,725.437571 209.736747,725.508806 Z" id="covid"></path>
        </g>
    </g>
</svg>