<svg width="580" height="400" xmlns="http://www.w3.org/2000/svg">
 <!-- Created with Method Draw - http://github.com/duopixel/Method-Draw/ -->

 <g>
  <title>Layer 1</title>
  <path fill="#ffffff" stroke="null" id="svg_5" d="m31.305631,237.264191l-1.795064,-10.774695l-6.443267,0c-0.961103,-3.706495 -4.305568,-6.464817 -8.311599,-6.464817c-4.753795,0 -8.619756,3.86596 -8.619756,8.619756s3.86596,8.619756 8.619756,8.619756c4.006031,0 7.350497,-2.758322 8.313754,-6.464817l2.788491,0l1.077469,6.464817l-0.081888,0l11.143189,56.062891c-5.311924,0.405129 -9.736014,4.495203 -10.257509,9.641197c-0.306001,3.027689 0.68958,6.059688 2.732463,8.313754c2.045037,2.260531 4.958514,3.559959 7.988359,3.559959l4.309878,0c0,7.130693 5.798941,12.929634 12.929634,12.929634s12.929634,-5.798941 12.929634,-12.929634l23.704328,0c0,7.130693 5.798941,12.929634 12.929634,12.929634s12.929634,-5.798941 12.929634,-12.929634l8.619756,0c1.191681,0 2.154939,-0.963258 2.154939,-2.154939s-0.963258,-2.154939 -2.154939,-2.154939l-9.373984,0c-1.77998,-5.014543 -6.557479,-8.619756 -12.175405,-8.619756s-10.395425,3.605213 -12.175405,8.619756l-25.212785,0c-1.77998,-5.014543 -6.557479,-8.619756 -12.175405,-8.619756s-10.395425,3.605213 -12.175405,8.619756l-5.064106,0c-1.814459,0 -3.559959,-0.780088 -4.792584,-2.139854c-1.2434,-1.377006 -1.827388,-3.148366 -1.639909,-4.990839c0.327551,-3.251803 3.331536,-5.796786 6.837621,-5.796786l1.704557,0c0.030169,0 0.053873,0 0.084043,0l84.029688,0c5.928237,-0.002155 10.748835,-4.822753 10.748835,-10.748835l0,-49.591609l-104.126649,0zm-16.549931,-4.309878c-2.376898,0 -4.309878,-1.93298 -4.309878,-4.309878s1.93298,-4.309878 4.309878,-4.309878s4.309878,1.93298 4.309878,4.309878s-1.93298,4.309878 -4.309878,4.309878z"/>
  <g transform="matrix(4.9382720758885625,0,0,4.9382720758885625,0,0) " id="svg_6"/>
  <g transform="matrix(4.9382720758885625,0,0,4.9382720758885625,0,0) " id="svg_7"/>
  <g transform="matrix(4.9382720758885625,0,0,4.9382720758885625,0,0) " id="svg_8"/>
  <g transform="matrix(4.9382720758885625,0,0,4.9382720758885625,0,0) " id="svg_9"/>
  <g transform="matrix(4.9382720758885625,0,0,4.9382720758885625,0,0) " id="svg_10"/>
  <g transform="matrix(4.9382720758885625,0,0,4.9382720758885625,0,0) " id="svg_11"/>
  <g transform="matrix(4.9382720758885625,0,0,4.9382720758885625,0,0) " id="svg_12"/>
  <g transform="matrix(4.9382720758885625,0,0,4.9382720758885625,0,0) " id="svg_13"/>
  <g transform="matrix(4.9382720758885625,0,0,4.9382720758885625,0,0) " id="svg_14"/>
  <g transform="matrix(4.9382720758885625,0,0,4.9382720758885625,0,0) " id="svg_15"/>
  <g transform="matrix(4.9382720758885625,0,0,4.9382720758885625,0,0) " id="svg_16"/>
  <g transform="matrix(4.9382720758885625,0,0,4.9382720758885625,0,0) " id="svg_17"/>
  <g transform="matrix(4.9382720758885625,0,0,4.9382720758885625,0,0) " id="svg_18"/>
  <g transform="matrix(4.9382720758885625,0,0,4.9382720758885625,0,0) " id="svg_19"/>
  <g transform="matrix(4.9382720758885625,0,0,4.9382720758885625,0,0) " id="svg_20"/>
  <g id="svg_21"/>
  <g transform="matrix(2.2073287676303863,0,0,2.2073287676303863,-24.386554343863622,321.1010313565015) " id="svg_26">
   <g id="svg_27">
    <path fill="#ffffff" id="svg_28" d="m127.22945,-17.166319c0.005,-0.014 3.723,-8.698 3.529,-8.799c-0.188,-0.099 -2.591,4.812 -4.342,8.137l-0.55,-0.289c1.526,-3.443 3.896,-8.371 3.702,-8.47c-0.188,-0.099 -2.744,4.729 -4.604,7.999l-0.55,-0.288c1.632,-3.39 4.153,-8.236 3.964,-8.335c-0.19,-0.099 -2.904,4.647 -4.871,7.86l-0.553,-0.291c1.742,-3.331 4.417,-8.096 4.229,-8.195c-0.191,-0.101 -4.152,6.226 -5.23,7.904c-0.939,1.467 -0.876,3.505 0.325,4.599c-1.644,2.875 -3.285,5.747 -4.928,8.621c-1.686,-2.871 -3.372,-5.744 -5.059,-8.615c1.963,-1.52 2.291,-4.537 0.681,-6.894c-1.689,-2.519 -5.22,-5.316 -7.323,-4.26c-2.037,1.179 -1.638,5.666 -0.457,8.46c1.087,2.638 3.792,4.021 6.137,3.213c1.647,3.33 3.293,6.659 4.938,9.988c-0.72,1.261 -1.44,2.521 -2.161,3.783c-8.514,-1.592 -14.961,-9.047 -14.961,-18.021c0.002,-10.132 8.214,-18.345 18.346,-18.345s18.344,8.212 18.344,18.344c0,9.034 -6.535,16.524 -15.134,18.046c-0.748,-1.273 -1.495,-2.545 -2.241,-3.818c1.6,-3.33 3.197,-6.66 4.797,-9.992c1.564,0.395 3.211,-0.582 3.967,-2.346c0.792,-1.846 0.003,0.004 0.005,0.004zm-8.049,18.228c-0.561,0.047 -1.119,0.086 -1.689,0.086c-0.626,0 -1.244,-0.038 -1.856,-0.094c-0.349,0.726 -0.698,1.451 -1.045,2.178c0.952,0.124 1.917,0.209 2.901,0.209c0.939,0 1.861,-0.077 2.771,-0.189c-0.36,-0.729 -0.721,-1.459 -1.082,-2.19zm-1.689,-42.621c-12.406,0 -22.5,10.094 -22.5,22.5c0,10.494 7.231,19.307 16.966,21.783c0.393,-0.688 0.785,-1.374 1.178,-2.061c-9.054,-1.999 -15.852,-10.077 -15.852,-19.722c0,-11.143 9.065,-20.207 20.207,-20.207c11.142,0 20.207,9.065 20.207,20.207c0,9.695 -6.868,17.812 -15.992,19.757c0.401,0.685 0.804,1.37 1.206,2.056c9.792,-2.437 17.08,-11.278 17.08,-21.813c0,-12.406 -10.094,-22.5 -22.5,-22.5zm0.79,40.805c-0.3,-0.609 -0.601,-1.217 -0.902,-1.826c-0.29,0.606 -0.581,1.211 -0.871,1.815c0.328,0.017 0.652,0.049 0.983,0.049c0.267,0.001 0.525,-0.029 0.79,-0.038z"/>
   </g>
  </g>
  <g transform="matrix(8.779148944284373,0,0,8.779148944284373,0,0) " id="svg_29"/>
  <g transform="matrix(8.779148944284373,0,0,8.779148944284373,0,0) " id="svg_30"/>
  <g transform="matrix(8.779148944284373,0,0,8.779148944284373,0,0) " id="svg_31"/>
  <g transform="matrix(8.779148944284373,0,0,8.779148944284373,0,0) " id="svg_32"/>
  <g transform="matrix(8.779148944284373,0,0,8.779148944284373,0,0) " id="svg_33"/>
  <g transform="matrix(8.779148944284373,0,0,8.779148944284373,0,0) " id="svg_34"/>
  <g transform="matrix(8.779148944284373,0,0,8.779148944284373,0,0) " id="svg_35"/>
  <g transform="matrix(8.779148944284373,0,0,8.779148944284373,0,0) " id="svg_36"/>
  <g transform="matrix(8.779148944284373,0,0,8.779148944284373,0,0) " id="svg_37"/>
  <g transform="matrix(8.779148944284373,0,0,8.779148944284373,0,0) " id="svg_38"/>
  <g transform="matrix(8.779148944284373,0,0,8.779148944284373,0,0) " id="svg_39"/>
  <g transform="matrix(8.779148944284373,0,0,8.779148944284373,0,0) " id="svg_40"/>
  <g transform="matrix(8.779148944284373,0,0,8.779148944284373,0,0) " id="svg_41"/>
  <g transform="matrix(8.779148944284373,0,0,8.779148944284373,0,0) " id="svg_42"/>
  <g transform="matrix(8.779148944284373,0,0,8.779148944284373,0,0) " id="svg_43"/>
  <g id="svg_44"/>
  <g transform="matrix(0.2099593357075053,0,0,0.2099593357075053,-837.4916789184548,-408.9855771819064) " id="svg_48">
   <circle fill="#ffffff" id="svg_49" r="48" cy="3432.449231" cx="6309.9711"/>
   <circle fill="#ffffff" id="svg_50" r="48" cy="3432.449231" cx="6549.9711"/>
   <path fill="#ffffff" id="svg_51" d="m6317.0961,3205.762231l48,32c2.727,1.82 5.813,2.688 8.859,2.688c5.172,0 10.242,-2.5 13.328,-7.125c4.898,-7.352 2.914,-17.289 -4.438,-22.188l-40.874,-27.25l0,-39.438c0,-8.836 -7.164,-16 -16,-16s-16,7.164 -16,16l0,48c0.117,0 0.182,0 0.296,-0.002c0.009,5.162 2.213,10.238 6.829,13.315z"/>
   <path fill="#ffffff" id="svg_52" d="m6673.4091,3255.988231l-48,-80c-5.782,-9.641 -16.196,-15.539 -27.438,-15.539l-112,0l0,-32c0,-17.672 -14.328,-32 -32,-32l-0.304,0c-29.224,-38.775 -75.51,-64 -127.696,-64s-98.472,25.225 -127.696,64l-0.304,0c-17.672,0 -32,14.328 -32,32l0,288c0,17.672 14.328,32 32,32l33.612,0c-1.049,-5.172 -1.612,-10.52 -1.612,-16c0,-44.184 35.817,-80 80,-80s80,35.816 80,80c0,5.48 -0.563,10.828 -1.612,16l65.612,0l16,0l0,-16c0,-44.184 35.817,-80 80,-80s80,35.816 80,80l0,16l16,0c17.672,0 32,-14.328 32,-32l0,-144c0,-5.797 -1.578,-11.492 -4.562,-16.461zm-347.438,-159.539c52.938,0 96,43.063 96,96s-43.063,96 -96,96s-96,-43.063 -96,-96s43.063,-96 96,-96zm288,192l-96,0l0,-16l0,-64l64,0l32,64l0,16z"/>
  </g>
  <g id="svg_53"/>
  <path fill="#ffffff" stroke="null" id="svg_58" d="m335.911226,268.826837c-0.933514,0 -1.819866,0.410733 -2.423255,1.122825c-0.603389,0.712427 -0.86294,1.653968 -0.709417,2.574772l7.860111,47.159995c0.255203,1.531551 1.580049,2.654042 3.132338,2.654042l36.680293,0c1.552623,0 2.877469,-1.122156 3.132672,-2.654042l7.860111,-47.159995c0.153523,-0.920804 -0.106028,-1.862345 -0.709751,-2.574772c-0.603389,-0.712427 -1.489407,-1.122825 -2.422921,-1.122825l-1.487735,0c0.529805,-1.961348 0.65356,-4.402331 0.271257,-6.218184l-2.023226,-9.622448c-0.196001,-0.931841 -0.034785,-2.782479 0.319087,-3.667494l7.503563,-18.746531c0.651553,-1.628214 -0.13981,-3.476845 -1.768358,-4.128732l-8.034371,-3.215621c-1.628214,-0.650884 -3.476845,0.13981 -4.128732,1.768358l-7.503897,18.746531c-0.353872,0.884346 -1.514493,2.335289 -2.2995,2.875128l-8.103607,5.568638c-1.836925,1.262635 -3.770846,3.680539 -4.599001,5.748918l-4.359184,10.891103l-16.186476,0l0,0.000334zm30.068101,26.199923l-13.670237,0l1.683736,-19.848619l10.422841,0l1.56366,19.848619zm6.618213,2.948043l-1.810501,-22.796662l13.775596,0l-6.801839,40.808691l-31.299295,0l-6.801504,-40.808691l7.959115,0l-1.930911,22.755856c-0.075591,0.885684 0.224431,1.762672 0.825813,2.417235c0.601717,0.654898 1.449605,1.027166 2.338634,1.027166l20.562718,0c0.002676,0 0.005352,0 0.006689,0c1.753975,0 3.175485,-1.649954 3.175485,-3.403595zm-13.657862,-29.147966l3.414633,-8.531063c0.353872,-0.884346 1.514158,-2.33462 2.2995,-2.874459l8.103941,-5.568972c1.83659,-1.2623 3.770512,-3.680539 4.598666,-5.748918l6.323543,-15.798153l2.137616,0.855916l-6.322874,15.79715c-0.828489,2.069383 -1.096736,5.154226 -0.638174,7.335323l2.022891,9.622448c0.196001,0.931841 0.03512,2.782479 -0.318753,3.66716l-0.497696,1.243904l-21.123295,0l0,-0.000334z"/>
  <g transform="matrix(0.2015415389986721,0,0,0.2015415389986721,0,0) " id="svg_59"/>
  <g transform="matrix(0.2015415389986721,0,0,0.2015415389986721,0,0) " id="svg_60"/>
  <g transform="matrix(0.2015415389986721,0,0,0.2015415389986721,0,0) " id="svg_61"/>
  <g transform="matrix(0.2015415389986721,0,0,0.2015415389986721,0,0) " id="svg_62"/>
  <g transform="matrix(0.2015415389986721,0,0,0.2015415389986721,0,0) " id="svg_63"/>
  <g transform="matrix(0.2015415389986721,0,0,0.2015415389986721,0,0) " id="svg_64"/>
  <g transform="matrix(0.2015415389986721,0,0,0.2015415389986721,0,0) " id="svg_65"/>
  <g transform="matrix(0.2015415389986721,0,0,0.2015415389986721,0,0) " id="svg_66"/>
  <g transform="matrix(0.2015415389986721,0,0,0.2015415389986721,0,0) " id="svg_67"/>
  <g transform="matrix(0.2015415389986721,0,0,0.2015415389986721,0,0) " id="svg_68"/>
  <g transform="matrix(0.2015415389986721,0,0,0.2015415389986721,0,0) " id="svg_69"/>
  <g transform="matrix(0.2015415389986721,0,0,0.2015415389986721,0,0) " id="svg_70"/>
  <g transform="matrix(0.2015415389986721,0,0,0.2015415389986721,0,0) " id="svg_71"/>
  <g transform="matrix(0.2015415389986721,0,0,0.2015415389986721,0,0) " id="svg_72"/>
  <g transform="matrix(0.2015415389986721,0,0,0.2015415389986721,0,0) " id="svg_73"/>
  <g id="svg_74"/>
  <text stroke="null" transform="matrix(1.9047459363937378,0,0,1.9047459363937378,-161.1720065753907,-70.38640652038157) " font-weight="bold" xml:space="preserve" text-anchor="start" font-family="Helvetica, Arial, sans-serif" font-size="24" id="svg_75" y="100.550009" x="139.649674" stroke-opacity="null" stroke-width="0" fill="#ffffff">VENDOR LOGIN</text>
 </g>
</svg>