<svg width="34" height="34" viewBox="0 0 34 34" fill="none" xmlns="http://www.w3.org/2000/svg">
<path d="M27.8449 32.6719H27.7296V30.6182C27.7296 30.2514 27.4323 29.9541 27.0655 29.9541H26.6721V6.34824H27.0655C27.4323 6.34824 27.7296 6.05094 27.7296 5.68418V2.96637C27.7296 2.59961 27.4323 2.3023 27.0655 2.3023H19.8472C19.5662 0.988457 18.3967 0 17.0001 0C15.6035 0 14.4339 0.988457 14.1529 2.3023H6.93462C6.56786 2.3023 6.27055 2.59961 6.27055 2.96637V5.68411C6.27055 6.05087 6.56786 6.34817 6.93462 6.34817H7.32801V29.9541H6.93462C6.56786 29.9541 6.27055 30.2514 6.27055 30.6181V32.6719H6.15527C5.78851 32.6719 5.49121 32.9692 5.49121 33.3359C5.49121 33.7027 5.78851 34 6.15527 34H27.8449C28.2116 34 28.5089 33.7027 28.5089 33.3359C28.5089 32.9692 28.2116 32.6719 27.8449 32.6719ZM17.0001 1.32812C17.6575 1.32812 18.2226 1.73068 18.4618 2.3023H15.5383C15.7775 1.73068 16.3427 1.32812 17.0001 1.32812ZM7.59868 3.63043H26.4015V5.02005H7.59868V3.63043ZM25.344 21.9751L21.4093 17.2598C21.2794 17.1042 21.0849 17.0177 20.8827 17.0214C20.68 17.0266 20.4907 17.124 20.3688 17.2861L15.9151 23.2053L13.8973 20.7885C13.7711 20.6374 13.5844 20.5501 13.3876 20.5501H13.3857C13.1881 20.5507 13.001 20.6392 12.8753 20.7915L8.65613 25.906V6.34844H25.344V21.9751ZM8.65613 27.993L13.3906 22.2539L19.4101 29.9539H8.65613V27.993ZM16.7738 24.2731L20.9263 18.7541L25.344 24.048V29.9539H21.0761L16.7738 24.2731ZM7.59868 32.6719V31.2823H26.4015V32.6719H7.59868Z" fill="black"/>
<path d="M15.1658 19.0728C16.6535 19.0728 17.8639 17.8625 17.8639 16.3748C17.8639 14.8871 16.6535 13.6768 15.1658 13.6768C13.6781 13.6768 12.4678 14.8871 12.4678 16.3748C12.4678 17.8625 13.678 19.0728 15.1658 19.0728ZM15.1658 15.0048C15.9212 15.0048 16.5358 15.6193 16.5358 16.3747C16.5358 17.1301 15.9212 17.7446 15.1658 17.7446C14.4104 17.7446 13.7959 17.1301 13.7959 16.3747C13.7959 15.6193 14.4104 15.0048 15.1658 15.0048Z" fill="black"/>
<path d="M13.4033 8.88574H20.5978C20.9645 8.88574 21.2618 8.58844 21.2618 8.22168C21.2618 7.85492 20.9645 7.55762 20.5978 7.55762H13.4033C13.0366 7.55762 12.7393 7.85492 12.7393 8.22168C12.7393 8.58844 13.0366 8.88574 13.4033 8.88574Z" fill="black"/>
<path d="M18.8339 9.94531H15.166C14.7993 9.94531 14.502 10.2426 14.502 10.6094C14.502 10.9761 14.7993 11.2734 15.166 11.2734H18.8339C19.2007 11.2734 19.498 10.9761 19.498 10.6094C19.498 10.2426 19.2007 9.94531 18.8339 9.94531Z" fill="black"/>
</svg>
