<svg width="56" height="56" xmlns="http://www.w3.org/2000/svg">

 <g>
  <title>background</title>
  <rect fill="none" id="canvas_background" height="402" width="582" y="-1" x="-1"/>
 </g>
 <g>
  <title>Layer 1</title>
  <path fill="#ffffff" id="svg_1" d="m47.533,0l-39.066,0c-4.669,0 -8.467,3.798 -8.467,8.467l0,39.066c0,4.669 3.798,8.467 8.467,8.467l39.066,0c4.669,0 8.467,-3.798 8.467,-8.467l0,-39.066c0,-4.669 -3.798,-8.467 -8.467,-8.467zm2.467,27c0,0.553 -0.447,1 -1,1s-1,-0.447 -1,-1l0,-6.586l-13.833,13.833c0.524,0.791 0.833,1.736 0.833,2.753c0,2.757 -2.243,5 -5,5s-5,-2.243 -5,-5c0,-1.017 0.309,-1.962 0.833,-2.753l-10.08,-10.08c-0.791,0.524 -1.736,0.833 -2.753,0.833s-1.962,-0.309 -2.753,-0.833l-6.54,6.54l-1.414,-1.414l6.54,-6.54c-0.524,-0.791 -0.833,-1.736 -0.833,-2.753c0,-2.757 2.243,-5 5,-5s5,2.243 5,5c0,1.017 -0.309,1.962 -0.833,2.753l10.08,10.08c0.791,-0.524 1.736,-0.833 2.753,-0.833s1.962,0.309 2.753,0.833l13.833,-13.833l-6.586,0c-0.553,0 -1,-0.447 -1,-1s0.447,-1 1,-1l10,0l0,10z"/>
 </g>
</svg>