<svg width="394.254" height="394.254" xmlns="http://www.w3.org/2000/svg">

 <g>
  <title>background</title>
  <rect fill="none" id="canvas_background" height="402" width="582" y="-1" x="-1"/>
 </g>
 <g>
  <title>Layer 1</title>
  <path fill="#ffffff" id="svg_1" d="m197.127,0c-77.197,0 -140,62.806 -140,140.002c0,31.703 20.895,81.688 63.879,152.813c30.721,50.832 60.926,92.583 62.197,94.335c3.236,4.46 8.412,7.104 13.924,7.104c5.512,0 10.689,-2.644 13.926,-7.104c1.27,-1.752 31.477,-43.503 62.195,-94.335c42.984,-71.125 63.879,-121.11 63.879,-152.813c0,-77.196 -62.803,-140.002 -140,-140.002zm4.674,172.82c-0.057,-0.538 0.119,-1.075 0.482,-1.474c0.199,-0.224 0.447,-0.395 0.719,-0.502l0,-4.763c0,-0.929 0.666,-1.721 1.576,-1.883c1.518,-0.27 3.076,-0.825 4.639,-1.648c0.594,-0.313 1.307,-0.295 1.881,0.051c0.574,0.346 0.924,0.967 0.924,1.639l0.002,11.419c0,0.418 -0.135,0.82 -0.385,1.15l-5.363,7.12c-0.367,0.486 -0.938,0.762 -1.527,0.762c-0.17,0 -0.344,-0.024 -0.512,-0.073c-0.758,-0.208 -1.309,-0.862 -1.389,-1.644l-1.047,-10.154zm0.459,-18.732l-10.266,0c-2.27,0 -6.65,-3.033 -11.322,-9.814c-3.691,-5.349 -6.256,-11.266 -6.859,-15.833l-0.104,-0.791l-1.854,-1.207c-0.543,-0.352 -0.871,-0.954 -0.871,-1.6l0,-3.147c0,-1.058 0.857,-1.911 1.912,-1.911l0.781,0l0,-3.41c0,-0.722 0.408,-1.384 1.057,-1.708c2.631,-1.314 7.854,-3.518 13.26,-3.518c4.314,0 7.891,1.437 10.631,4.263c3.414,3.53 7.35,5.32 11.697,5.32c2.461,0 5.006,-0.582 7.563,-1.726c0.59,-0.267 1.273,-0.213 1.818,0.139c0.256,0.165 0.463,0.387 0.609,0.64l1.045,0c1.055,0 1.91,0.854 1.91,1.911l0,3.147c0,0.646 -0.326,1.248 -0.869,1.6l-1.855,1.207l-0.102,0.785c-0.605,4.572 -3.168,10.49 -6.861,15.84c-4.672,6.781 -9.051,9.813 -11.32,9.813zm-10.289,17.259c0.363,0.398 0.539,0.936 0.482,1.474l-1.047,10.156c-0.08,0.785 -0.631,1.437 -1.389,1.647c-0.17,0.048 -0.342,0.07 -0.512,0.07c-0.592,0 -1.16,-0.273 -1.527,-0.761l-5.371,-7.124c-0.25,-0.332 -0.385,-0.734 -0.385,-1.15l0.008,-11.422c0,-0.67 0.352,-1.291 0.926,-1.637s1.285,-0.365 1.879,-0.05c1.563,0.823 3.123,1.379 4.639,1.648c0.912,0.162 1.576,0.954 1.576,1.883l0,4.763c0.273,0.108 0.522,0.279 0.721,0.503zm66.951,28.405c-4.084,-15.856 -9.832,-31.474 -16.93,-33.513l-21.26,-6.444c-0.514,-1.557 -1.652,-2.898 -3.244,-4.034c1.752,-1.947 3.23,-3.919 4.355,-5.55c2.668,-3.869 4.887,-8.034 6.426,-12.056c0.758,-1.697 1.402,-3.398 1.926,-5.07c2.07,-1.732 3.289,-4.323 3.289,-7.043l0,-6.658c0,-1.909 -0.602,-3.779 -1.705,-5.328l0,-9.372c0,-16.443 -13.379,-29.818 -29.82,-29.818l-9.664,0c-16.441,0 -29.82,13.375 -29.82,29.818l0,9.373c-1.105,1.55 -1.705,3.42 -1.705,5.327l0,6.658c0,2.715 1.219,5.306 3.289,7.041c0.521,1.672 1.168,3.375 1.926,5.076c1.537,4.018 3.758,8.184 6.426,12.051c1.125,1.63 2.604,3.603 4.355,5.551c-1.592,1.136 -2.73,2.478 -3.244,4.034l-21.26,6.444c-7.098,2.039 -12.846,17.656 -16.93,33.513c-14.977,-15.483 -24.207,-36.558 -24.207,-59.75c0,-47.422 38.58,-86.004 86.002,-86.004c47.422,0 86.002,38.582 86.002,86.004c0,23.192 -9.231,44.266 -24.207,59.75z"/>
 </g>
</svg>