<svg width="24.75" height="24.75" xmlns="http://www.w3.org/2000/svg">

 <g>
  <title>background</title>
  <rect fill="none" id="canvas_background" height="402" width="582" y="-1" x="-1"/>
 </g>
 <g>
  <title fill="#ffffff">Layer 1</title>
  <path fill="#ffffff" id="svg_2" d="m0,3.875c0,-1.104 0.896,-2 2,-2l20.75,0c1.104,0 2,0.896 2,2s-0.896,2 -2,2l-20.75,0c-1.104,0 -2,-0.896 -2,-2zm22.75,6.5l-20.75,0c-1.104,0 -2,0.896 -2,2c0,1.104 0.896,2 2,2l20.75,0c1.104,0 2,-0.896 2,-2c0,-1.104 -0.895,-2 -2,-2zm0,8.5l-20.75,0c-1.104,0 -2,0.896 -2,2s0.896,2 2,2l20.75,0c1.104,0 2,-0.896 2,-2s-0.895,-2 -2,-2z"/>
 </g>
</svg>