<svg width="461.305" height="461.305" xmlns="http://www.w3.org/2000/svg">

 <g>
  <title>background</title>
  <rect fill="none" id="canvas_background" height="402" width="582" y="-1" x="-1"/>
 </g>
 <g>
  <title fill="#ffffff">Layer 1</title>
  <path fill="#ffffff" id="svg_3" d="m365.764,229.834c-12.702,9.473 -28.37,14.931 -45.037,14.931c-15.848,0 -31.677,-4.969 -45.037,-14.931c-12.702,9.473 -28.369,14.931 -45.037,14.931c-15.845,0 -31.675,-4.968 -45.037,-14.931c-12.704,9.474 -28.372,14.931 -45.037,14.931c-15.877,0 -31.703,-4.987 -45.037,-14.931c-12.706,9.474 -28.372,14.931 -45.037,14.931c-13.187,0 -25.589,-3.412 -36.385,-9.385l0,210.053c0,5.572 4.517,10.089 10.089,10.089l159.095,0l0,-156.213c0,-5.572 4.517,-10.089 10.089,-10.089l74.521,0c5.572,0 10.089,4.517 10.089,10.089l0,156.213l159.094,0c5.572,0 10.089,-4.517 10.089,-10.089l0,-210.053c-10.796,5.973 -23.198,9.385 -36.385,9.385c-15.813,0 -31.649,-4.949 -45.037,-14.931zm-319.751,80.301c0,-7.979 6.468,-14.446 14.446,-14.446l73.695,0c7.979,0 14.447,6.468 14.447,14.446l0,8.95l-102.588,0l0,-8.95zm102.589,84.55l0,0c-0.001,7.978 -6.469,14.446 -14.448,14.446l-73.694,0c-7.979,0 -14.446,-6.468 -14.446,-14.446l0,-45.71l102.588,0l0,45.71zm266.488,0c0,7.978 -6.468,14.446 -14.447,14.446l-73.695,0c-7.979,0 -14.446,-6.468 -14.446,-14.446l0,-45.71l102.588,0l0,45.71zm0,-84.55l0,8.95l-102.588,0l0,-8.95c0,-7.979 6.468,-14.446 14.446,-14.446l73.695,0c7.979,0 14.447,6.468 14.447,14.446z"/>
  <path fill="#ffffff" id="svg_4" d="m50.504,219.857c19.668,0 36.697,-11.249 45.037,-27.658c8.341,16.408 25.37,27.658 45.037,27.658c19.668,0 36.697,-11.25 45.038,-27.658c8.34,16.408 25.369,27.658 45.037,27.658c19.668,0 36.697,-11.25 45.037,-27.658c8.34,16.408 25.37,27.658 45.037,27.658c19.668,0 36.697,-11.249 45.037,-27.658c8.341,16.408 25.37,27.658 45.037,27.658c27.893,0 50.504,-22.612 50.504,-50.504c0.001,-9.165 -37.568,-140.631 -37.568,-140.631c-3.614,-13.528 -15.868,-22.939 -29.871,-22.939l-325.463,0c-13.929,0 -26.139,9.314 -29.819,22.748c-1.626,5.933 -38.584,131.421 -38.584,140.822c0,27.893 22.611,50.504 50.504,50.504z"/>
 </g>
</svg>