<svg width="496.262" height="496.262" xmlns="http://www.w3.org/2000/svg">

 <g>
  <title>background</title>
  <rect fill="none" id="canvas_background" height="402" width="582" y="-1" x="-1"/>
 </g>
 <g>
  <title fill="#ffffff">Layer 1</title>
  <path fill="#ffffff" id="svg_2" d="m477.832,274.28l-67.743,0l0,-65.106l67.743,0c10.179,0 18.43,-8.243 18.43,-18.424c0,-10.182 -8.251,-18.43 -18.43,-18.43l-67.743,0l0,-90.338c0,-13.187 -2.606,-22.866 -7.743,-28.762c-4.882,-5.609 -11.301,-8.219 -20.19,-8.219c-8.482,0 -14.659,2.592 -19.447,8.166c-5.077,5.902 -7.654,15.599 -7.654,28.821l0,90.343l-127.428,0l-54.181,-81.988c-4.637,-7.317 -8.997,-14.171 -13.231,-20.75c-3.812,-5.925 -7.53,-10.749 -11.042,-14.351c-3.109,-3.189 -6.652,-5.657 -10.796,-7.554c-3.91,-1.785 -8.881,-2.681 -14.762,-2.681c-7.501,0 -14.31,2.055 -20.83,6.277c-6.452,4.176 -10.912,9.339 -13.636,15.785c-2.391,6.126 -3.656,15.513 -3.656,27.63l0,77.626l-67.07,0c-10.177,0.001 -18.423,8.249 -18.423,18.43c0,10.181 8.246,18.424 18.424,18.424l67.07,0l0,65.113l-67.07,0c-10.178,0 -18.424,8.246 -18.424,18.43c0,10.178 8.246,18.418 18.424,18.418l67.07,0l0,103.143c0,12.797 2.689,22.378 8.015,28.466c5.065,5.805 11.487,8.5 20.208,8.5c8.414,0 14.786,-2.707 20.07,-8.523c5.411,-5.958 8.148,-15.533 8.148,-28.442l0,-103.144l115.308,0l62.399,95.683c4.339,6.325 8.819,12.709 13.287,18.969c4.031,5.621 8.429,10.574 13.069,14.711c4.179,3.742 8.659,6.484 13.316,8.157c4.794,1.726 10.397,2.601 16.615,2.601c16.875,0 34.158,-5.166 34.158,-43.479l0,-96.642l67.743,0c10.179,0 18.43,-8.252 18.43,-18.43c0.002,-10.178 -8.249,-18.43 -18.428,-18.43zm-122.778,-65.107l0,65.106l-60.041,0l-43.021,-65.106l103.062,0zm-213.118,-74.809l24.76,37.956l-24.76,0l0,-37.956zm0,139.916l0,-65.106l48.802,0l42.466,65.106l-91.268,0zm213.118,90.873l-35.683,-54.013l35.683,0l0,54.013z"/>
 </g>
</svg>