<svg width="24" height="24" xmlns="http://www.w3.org/2000/svg">

 <g>
  <title>background</title>
  <rect fill="none" id="canvas_background" height="402" width="582" y="-1" x="-1"/>
 </g>
 <g>
  <title>Layer 1</title>
  <path fill="#ffffff" id="svg_1" d="m21,5l-18,0a1,1 0 0 0 -1,1l0,4l0.893,0c0.996,0 1.92,0.681 2.08,1.664a2.001,2.001 0 0 1 -1.973,2.336l-1,0l0,4a1,1 0 0 0 1,1l18,0a1,1 0 0 0 1,-1l0,-4l-1,0a2.001,2.001 0 0 1 -1.973,-2.336c0.16,-0.983 1.084,-1.664 2.08,-1.664l0.893,0l0,-4a1,1 0 0 0 -1,-1zm-12,4a1,1 0 1 1 0,2a1,1 0 1 1 0,-2zm-0.8,6.4l6,-8l1.6,1.2l-6,8l-1.6,-1.2zm6.8,-0.4a1,1 0 1 1 0,-2a1,1 0 1 1 0,2z"/>
 </g>
</svg>