<svg width="297" height="297" xmlns="http://www.w3.org/2000/svg">

 <g>
  <title>background</title>
  <rect fill="none" id="canvas_background" height="402" width="582" y="-1" x="-1"/>
 </g>
 <g>
  <title>Layer 1</title>
  <path fill="#ffffff" id="svg_1" d="m283.52,143.802l-20.533,-10.264l-9.382,-37.524c-4.531,-18.125 -20.743,-30.784 -39.426,-30.784l-41.217,0c-5.458,0 -9.884,4.425 -9.884,9.884l0,6.424l-22.979,0l0,-39.04c0,-5.458 -4.425,-9.884 -9.884,-9.884l-65.231,0c-5.458,0 -9.884,4.425 -9.884,9.884l0,39.04l-22.731,0c-5.458,0 -9.884,4.425 -9.884,9.884l0,55.348l-12.601,0c-5.458,0 -9.884,4.425 -9.884,9.884l0,65.231c0,5.458 4.425,9.884 9.884,9.884l7.597,0c4.468,18.681 21.296,32.616 41.327,32.616s36.858,-13.934 41.327,-32.616l80.425,0c4.468,18.681 21.296,32.616 41.327,32.616s36.858,-13.934 41.327,-32.616l9.409,0c13.443,0 24.38,-10.937 24.38,-24.379l0,-41.781c-0.003,-9.295 -5.168,-17.65 -13.483,-21.807zm-100.675,-58.804l31.334,0c9.596,0 17.923,6.502 20.25,15.811l7.414,29.653l-58.997,0l0,-45.464l-0.001,0zm-19.767,61.772l-55.595,0l0,-45.464l55.595,0l0,45.464zm-88.21,-94.387l45.464,0l0,29.156l-45.464,0l0,-29.156zm-32.616,48.923l45.464,0l0,45.464l-45.464,0l0,-45.464zm16.555,143.311c-12.535,0 -22.732,-10.197 -22.732,-22.732s10.197,-22.732 22.732,-22.732s22.732,10.197 22.732,22.732s-10.197,22.732 -22.732,22.732zm0,-65.231c-17.477,0 -32.52,10.608 -39.04,25.721l0,-38.569l143.311,0l0,45.464l-62.945,0c-4.468,-18.682 -21.295,-32.616 -41.326,-32.616zm163.078,65.231c-12.535,0 -22.732,-10.197 -22.732,-22.732s10.197,-22.732 22.732,-22.732s22.732,10.197 22.732,22.732s-10.197,22.732 -22.732,22.732zm55.348,-37.227c0,2.543 -2.069,4.612 -4.613,4.612l-9.409,0c-4.468,-18.681 -21.296,-32.616 -41.327,-32.616c-17.477,0 -32.52,10.608 -39.04,25.721l0,-54.877l69.324,0l22.512,11.253c1.573,0.787 2.551,2.368 2.551,4.126l0,41.781l0.002,0z"/>
 </g>
</svg>