<?xml version="1.0" encoding="UTF-8"?>
<svg width="50px" height="60px" viewBox="0 0 50 60" version="1.1" xmlns="http://www.w3.org/2000/svg" xmlns:xlink="http://www.w3.org/1999/xlink">
    <!-- Generator: Sketch 63.1 (92452) - https://sketch.com -->
    <title>officers</title>
    <desc>Created with Sketch.</desc>
    <g id="Page-1" stroke="none" stroke-width="1" fill="none" fill-rule="evenodd">
        <g id="Data-save" transform="translate(-704.000000, -469.000000)" fill="#6B22AE" fill-rule="nonzero">
            <g id="officers" transform="translate(704.000000, 469.000000)">
                <path d="M23.4511435,0.0748440748 C23.7505198,-0.0249480249 24.1496881,-0.0249480249 24.4490644,0.0748440748 L24.4490644,0.0748440748 L34.4282744,1.77130977 C35.8253638,2.07068607 36.9230769,3.26819127 36.9230769,4.76507277 L36.9230769,4.76507277 L36.9230769,7.65904366 C36.9230769,8.05821206 36.8232848,8.45738046 36.7234927,8.65696466 L36.7234927,8.65696466 L34.9272349,13.1476091 L34.9272349,21.5301455 C34.9272349,25.022869 33.4303534,28.3160083 30.7359667,30.6112266 L30.7359667,30.6112266 L38.02079,33.5051975 C38.5197505,32.008316 39.9168399,31.010395 41.4137214,31.010395 C43.3097713,31.010395 44.9064449,32.6070686 44.9064449,34.5031185 L44.9064449,34.5031185 L44.9064449,40.989605 L46.9022869,40.989605 C48.5987526,40.989605 49.8960499,42.2869023 49.8960499,43.983368 L49.8960499,43.983368 L49.8960499,56.956341 C49.8960499,58.6528067 48.5987526,59.950104 46.9022869,59.950104 L46.9022869,59.950104 L0,59.950104 L0,44.8814969 C0,40.2910603 2.79417879,36.1995842 6.98544699,34.6029106 L6.98544699,34.6029106 L17.1642412,30.7110187 C14.4698545,28.4158004 12.972973,25.1226611 12.972973,21.6299376 L12.972973,21.6299376 L12.972973,13.2474012 L11.1767152,8.75675676 C11.0769231,8.45738046 10.977131,8.05821206 10.977131,7.65904366 L10.977131,7.65904366 L10.977131,4.76507277 C10.977131,3.26819127 12.0748441,2.07068607 13.4719335,1.77130977 L13.4719335,1.77130977 Z M42.9106029,42.985447 L39.9168399,42.985447 L39.9168399,57.954262 L42.9106029,57.954262 L42.9106029,42.985447 Z M37.5218295,35.4012474 L30.7359667,41.2889813 L27.8419958,38.3950104 L27.8419958,52.3659044 L23.8503119,56.3575884 L19.8586279,52.3659044 L19.8586279,38.3950104 L16.964657,41.2889813 L10.1787942,35.4012474 L7.68399168,36.3991684 C4.29106029,37.6964657 1.995842,41.0893971 1.995842,44.7817048 L1.995842,44.7817048 L1.995842,57.954262 L10.977131,57.954262 L10.977131,47.975052 L12.972973,47.975052 L12.972973,57.954262 L32.9313929,57.954262 C32.8316008,57.6548857 32.7318087,57.2557173 32.7318087,56.956341 L32.7318087,56.956341 L32.7318087,43.983368 C32.7318087,42.2869023 34.029106,40.989605 35.7255717,40.989605 L35.7255717,40.989605 L37.7214137,40.989605 L37.7214137,35.5010395 L37.5218295,35.4012474 Z M37.9209979,42.985447 L35.9251559,42.985447 C35.3264033,42.985447 34.9272349,43.3846154 34.9272349,43.983368 L34.9272349,43.983368 L34.9272349,56.956341 C34.9272349,57.5550936 35.3264033,57.954262 35.9251559,57.954262 L35.9251559,57.954262 L37.9209979,57.954262 L37.9209979,42.985447 Z M46.9022869,42.985447 L44.9064449,42.985447 L44.9064449,57.954262 L46.9022869,57.954262 C47.5010395,57.954262 47.9002079,57.5550936 47.9002079,56.956341 L47.9002079,56.956341 L47.9002079,43.983368 C47.9002079,43.3846154 47.5010395,42.985447 46.9022869,42.985447 L46.9022869,42.985447 Z M25.9459459,39.3929314 C24.7484407,40.0914761 23.1517672,40.0914761 21.954262,39.3929314 L21.954262,39.3929314 L21.954262,51.4677755 L23.950104,53.4636175 L25.9459459,51.4677755 Z M12.972973,42.985447 L12.972973,44.981289 L10.977131,44.981289 L10.977131,42.985447 L12.972973,42.985447 Z M17.962578,42.985447 L17.962578,44.981289 L14.968815,44.981289 L14.968815,42.985447 L17.962578,42.985447 Z M41.4137214,33.006237 C40.6153846,33.006237 39.9168399,33.7047817 39.9168399,34.5031185 L39.9168399,34.5031185 L39.9168399,40.989605 L42.9106029,40.989605 L42.9106029,34.5031185 C42.9106029,33.7047817 42.2120582,33.006237 41.4137214,33.006237 Z M28.8399168,32.008316 C28.4407484,32.3076923 27.9417879,32.5072765 27.4428274,32.7068607 L27.4428274,32.7068607 L26.6444906,33.006237 C27.3430353,33.6049896 27.8419958,34.5031185 27.9417879,35.5010395 L27.9417879,35.5010395 L31.035343,38.6943867 L35.6257796,34.7027027 Z M19.0602911,31.9085239 L12.2744283,34.6029106 L16.8648649,38.5945946 L19.95842,35.5010395 C20.0582121,34.5031185 20.5571726,33.6049896 21.2557173,33.006237 L21.2557173,33.006237 L20.4573805,32.7068607 C20.0582121,32.5072765 19.5592516,32.3076923 19.0602911,31.9085239 L19.0602911,31.9085239 Z M23.950104,34.004158 C22.8523909,34.004158 21.954262,34.9022869 21.954262,36 C21.954262,37.0977131 22.8523909,37.995842 23.950104,37.995842 C25.047817,37.995842 25.9459459,37.0977131 25.9459459,36 C25.9459459,34.9022869 25.047817,34.004158 23.950104,34.004158 Z M32.9313929,16.04158 C32.7318087,16.3409563 32.4324324,16.5405405 32.1330561,16.8399168 C27.1434511,21.3305613 19.4594595,21.031185 14.968815,16.04158 L14.968815,16.04158 L14.968815,21.6299376 C14.968815,25.6216216 17.4636175,29.3139293 21.1559252,30.8108108 L21.1559252,30.8108108 L22.0540541,31.1101871 C23.2515593,31.6091476 24.5488565,31.6091476 25.7463617,31.1101871 L25.7463617,31.1101871 L26.6444906,30.8108108 C30.4365904,29.3139293 32.9313929,25.6216216 32.9313929,21.5301455 L32.9313929,21.5301455 Z M32.033264,14.045738 L15.966736,14.045738 C16.4656965,14.7442827 17.1642412,15.3430353 17.8627859,15.9417879 C22.2536383,19.3347193 28.6403326,18.5363825 32.033264,14.045738 L32.033264,14.045738 Z M24.049896,2.07068607 L23.7505198,2.07068607 L13.7713098,3.76715177 C13.3721414,3.86694387 12.972973,4.26611227 12.972973,4.76507277 L12.972973,4.76507277 L12.972973,7.65904366 C12.972973,7.75883576 12.972973,7.95841996 13.0727651,8.05821206 L13.0727651,8.05821206 L14.6694387,12.049896 L33.1309771,12.049896 L34.7276507,8.05821206 C34.8274428,7.95841996 34.8274428,7.75883576 34.8274428,7.65904366 L34.8274428,7.65904366 L34.8274428,4.76507277 C34.8274428,4.26611227 34.5280665,3.86694387 34.029106,3.76715177 L34.029106,3.76715177 L24.049896,2.07068607 Z M23.950104,4.06652807 C25.6465696,4.06652807 26.9438669,5.36382536 26.9438669,7.06029106 C26.9438669,8.75675676 25.6465696,10.0540541 23.950104,10.0540541 C22.2536383,10.0540541 20.956341,8.75675676 20.956341,7.06029106 C20.956341,5.36382536 22.2536383,4.06652807 23.950104,4.06652807 Z M23.950104,6.06237006 C23.3513514,6.06237006 22.952183,6.46153846 22.952183,7.06029106 C22.952183,7.65904366 23.3513514,8.05821206 23.950104,8.05821206 C24.5488565,8.05821206 24.9480249,7.65904366 24.9480249,7.06029106 C24.9480249,6.46153846 24.5488565,6.06237006 23.950104,6.06237006 Z" id="Combined-Shape"></path>
            </g>
        </g>
    </g>
</svg>