<?xml version="1.0" encoding="UTF-8"?>
<svg width="21px" height="24px" viewBox="0 0 21 24" version="1.1" xmlns="http://www.w3.org/2000/svg" xmlns:xlink="http://www.w3.org/1999/xlink">
    <!-- Generator: Sketch 63.1 (92452) - https://sketch.com -->
    <title> officers</title>
    <desc>Created with Sketch.</desc>
    <g id="slicing" stroke="none" stroke-width="1" fill="none" fill-rule="evenodd">
        <g id="Apple-TV" transform="translate(-394.000000, -487.000000)" fill="#E59E23" fill-rule="nonzero">
            <g id="-officers" transform="translate(394.000000, 487.000000)">
                <path d="M13.8016628,15.142448 C14.0191039,15.1861801 14.6719261,15.4469654 16.9346882,16.3172286 C20.3438103,17.6477857 20.2174787,22.315507 20.1236858,23.6010336 L20.1111686,23.7577829 C20.1111686,23.8886467 20.024037,23.9752794 19.8934503,23.9752794 L19.8934503,23.9752794 L11.1909838,23.9752794 C11.1471963,23.9752794 11.0605635,23.9319353 11.0168314,23.8886467 C10.9734873,23.801515 10.9734873,23.7577829 11.0168314,23.6709838 L11.0168314,23.6709838 L12.4525635,20.7989654 L11.4085912,19.450254 C11.3213487,19.3631778 11.3213487,19.2327575 11.4085912,19.145515 L11.4085912,19.145515 L12.5833718,17.9707344 L11.5389561,16.9265404 C11.4956674,16.8827529 11.4956674,16.7956767 11.4956674,16.7523326 C11.4956674,16.6652564 11.5389561,16.6219677 11.5822448,16.5781801 L11.5822448,16.5781801 L13.6275104,15.1861801 C13.6712979,15.142448 13.7579307,15.142448 13.8016628,15.142448 Z M6.40456351,15.0988268 C6.44812933,15.0988268 6.53503926,15.0988268 6.57860508,15.1423926 L6.57860508,15.1423926 L8.62375982,16.534836 C8.66727021,16.5781801 8.71061432,16.6652564 8.71061432,16.7089885 C8.75423557,16.7522771 8.71061432,16.8394088 8.66727021,16.8826975 L8.66727021,16.8826975 L7.6228545,17.9273349 L8.79774596,19.1021155 C8.84131178,19.1887483 8.88482217,19.3198337 8.79774596,19.4064111 L8.79774596,19.4064111 L7.75344111,20.7556212 L9.18933949,23.6709838 C9.23290531,23.7578383 9.23290531,23.8449145 9.18933949,23.8886467 C9.14571824,23.9319353 9.10237413,23.9752794 9.01529792,23.9752794 L9.01529792,23.9752794 L0.312720554,23.9752794 C0.182355658,23.9752794 0.0952794457,23.8885912 0.0952794457,23.7577829 C0.00809237875,22.756933 -0.296314088,17.7096721 3.27170439,16.2738291 C5.57797691,15.4035658 6.23052194,15.1423926 6.40456351,15.0988268 Z M9.97258199,16.4912702 C10.0594365,16.404194 10.1901894,16.404194 10.2769885,16.4912702 L10.2769885,16.4912702 L11.5389007,17.7529053 C11.5389007,17.7967483 11.5821894,17.840037 11.5821894,17.9272794 C11.5821894,18.0144111 11.5821894,18.0576998 11.5389007,18.1010439 L11.5389007,18.1010439 L10.4076859,19.2327021 L11.5821894,20.7118337 C11.669321,20.7989654 11.669321,20.8860416 11.669321,20.8859307 L11.669321,20.8859307 L10.3642309,23.7577275 C10.3206097,23.8448037 10.2334781,23.8885358 10.146679,23.8885358 C10.0594919,23.8885358 9.97263741,23.8448037 9.92907159,23.7577275 L9.92907159,23.7577275 L8.62370439,20.8859307 C8.62370439,20.7988545 8.62370439,20.7117229 8.66721478,20.6684342 L8.66721478,20.6684342 L9.84188453,19.1886928 L8.71050346,18.0576443 C8.62364896,17.9706236 8.62364896,17.8399815 8.71050346,17.7529053 L8.71050346,17.7529053 Z M15.1855208,8.64264366 L15.2373949,8.65906697 C15.3245266,8.65906697 15.3678152,8.74614319 15.3678152,8.83310855 L15.3678152,8.83310855 L15.3678152,9.18130254 C15.3678152,12.0964988 13.0184203,14.4463372 10.1031132,14.4896259 L10.1031132,14.4896259 L9.8855474,14.4820777 C7.07175904,14.3284392 4.8412351,12.0236189 4.96866513,9.18130254 L4.96866513,9.18130254 L4.96866513,8.83310855 C4.96866513,8.74614319 5.01195381,8.70263279 5.09914088,8.65906697 C5.18616166,8.61544573 5.27301617,8.65906697 5.31658199,8.70263279 C6.5784388,10.008 8.88471132,10.0950762 9.58076674,10.0950762 L9.58076674,10.0950762 L10.7556582,10.0950762 C11.4517691,10.0950762 13.7578199,9.96437875 15.0199538,8.70263279 C15.0632425,8.65906697 15.1503741,8.6153903 15.2373949,8.65906697 Z M10.1031686,6.83163048 C11.799963,6.83163048 13.4969238,7.17960277 14.628194,7.78874827 C14.6719261,7.78874827 14.7152702,7.87582448 14.8023464,7.91933487 C14.8023464,7.96278984 14.8023464,8.04986605 14.7590577,8.09337644 C13.8016628,9.52916397 11.2342171,9.61635104 10.7119815,9.61635104 L10.7119815,9.61635104 L9.5117832,9.61607872 C8.8638259,9.61087989 6.45492556,9.51593818 5.53430023,8.09337644 C5.49073441,8.04981062 5.49073441,7.96278984 5.49073441,7.91933487 C5.49073441,7.87582448 5.5342448,7.83231409 5.57792148,7.78874827 C6.70919169,7.17960277 8.40615242,6.83163048 10.1031686,6.83163048 Z M10.1466236,5.39551039 C12.4524527,5.39551039 14.6281386,6.17891917 15.2373949,6.43981524 C15.3245266,6.43981524 15.3678152,6.57040185 15.3678152,6.65736721 L15.3678152,6.65736721 L15.280739,7.09252656 C15.2373949,7.17960277 15.1941062,7.22316859 15.1503741,7.26667898 C15.1244009,7.26667898 15.0826642,7.26667898 15.062745,7.26667898 L14.804513,7.14833577 C13.5687984,6.61255858 11.9362402,6.30933949 10.1900231,6.30933949 C8.27534411,6.30933949 6.57832794,6.65742263 5.31647113,7.26667898 C5.31647113,7.31007852 5.27296074,7.31007852 5.22939492,7.31007852 C5.18610624,7.31007852 5.18610624,7.26667898 5.14259584,7.26667898 C5.05540878,7.22311316 5.01189838,7.17960277 5.01189838,7.09252656 L5.01189838,7.09252656 L4.92504388,6.65736721 C4.92504388,6.57040185 4.9686097,6.48332564 5.0554642,6.43981524 C5.66466513,6.17891917 7.79689607,5.39551039 10.1466236,5.39551039 Z M10.1031132,2.66453526e-14 C10.3642309,2.66453526e-14 10.7119261,0.087187067 11.5823002,0.870263279 C12.6266605,1.78409238 13.9320831,1.91456813 14.7590577,2.00164434 L14.7590577,2.00164434 L14.9764988,2.00164434 C15.7596859,2.0886097 15.80303,2.39323788 15.8901062,3.17631409 L15.8901062,3.17631409 L15.9773487,3.48105312 C16.1077136,4.04657737 16.4124527,4.39488222 16.6299492,4.61243418 C16.6732933,4.69928868 16.7170254,4.7428545 16.7603695,4.78647575 C16.8038799,4.87355196 16.8038799,5.00402771 16.7170254,5.09110393 C16.5861617,5.2216351 16.1948453,5.56960739 15.6726097,6.04827714 C15.6292656,6.09178753 15.5855335,6.09178753 15.5421894,6.09178753 C15.5421894,6.09178753 15.4984573,6.04827714 15.4551686,6.04827714 C14.6719261,5.61317321 12.2348453,4.87360739 10.0594919,4.87360739 C7.92742725,4.87360739 5.49067898,5.61311778 4.70760277,6.04827714 C4.6204157,6.09178753 4.5335612,6.04827714 4.44648499,6.00471132 C3.924194,5.52626328 3.57622171,5.17795843 3.40218014,5.04759353 C3.3150485,4.96040647 3.27153811,4.83004157 3.35861432,4.7428545 C3.40218014,4.69928868 3.44569053,4.61243418 3.48903464,4.56892379 C3.70658661,4.307806 4.01132564,4.00328868 4.14174596,3.43754273 L4.14174596,3.43754273 L4.22893303,3.1330254 C4.35929792,2.39323788 4.44648499,2.0886097 5.2295612,2.00164434 L5.2295612,2.00164434 L5.44716859,2.00164434 C6.27408776,1.91456813 7.57939954,1.78409238 8.62370439,0.870263279 C9.49391224,0.087187067 9.84188453,2.66453526e-14 10.1031132,2.66453526e-14 Z" id="Combined-Shape"></path>
            </g>
        </g>
    </g>
</svg>