<?xml version="1.0" encoding="UTF-8"?>
<svg xmlns="http://www.w3.org/2000/svg" xmlns:xlink="http://www.w3.org/1999/xlink" width="20pt" height="20pt" viewBox="0 0 20 20" version="1.1">
<defs>
<linearGradient id="linear0" gradientUnits="userSpaceOnUse" x1="362" y1="263" x2="432" y2="193" gradientTransform="matrix(0.0390625,0,0,0.0390625,0,0)">
<stop offset="0" style="stop-color:rgb(96.078431%,76.078431%,76.078431%);stop-opacity:1;"/>
<stop offset="1" style="stop-color:rgb(98.039216%,88.235294%,88.235294%);stop-opacity:1;"/>
</linearGradient>
<linearGradient id="linear1" gradientUnits="userSpaceOnUse" x1="128.686" y1="325.314" x2="339.314" y2="114.686" gradientTransform="matrix(0.0390625,0,0,0.0390625,0,0)">
<stop offset="0" style="stop-color:rgb(56.078431%,52.54902%,75.294118%);stop-opacity:1;"/>
<stop offset="1" style="stop-color:rgb(78.039216%,76.470588%,87.45098%);stop-opacity:1;"/>
</linearGradient>
<linearGradient id="linear2" gradientUnits="userSpaceOnUse" x1="159.75" y1="262.75" x2="308.25" y2="114.25" gradientTransform="matrix(0.0390625,0,0,0.0390625,0,0)">
<stop offset="0" style="stop-color:rgb(50.588235%,41.568627%,41.568627%);stop-opacity:1;"/>
<stop offset="1" style="stop-color:rgb(61.568627%,54.509804%,54.509804%);stop-opacity:1;"/>
</linearGradient>
<linearGradient id="linear3" gradientUnits="userSpaceOnUse" x1="303.818" y1="439.818" x2="507.818" y2="235.818" gradientTransform="matrix(0.0390625,0,0,0.0390625,0,0)">
<stop offset="0" style="stop-color:rgb(96.862745%,81.960784%,81.960784%);stop-opacity:1;"/>
<stop offset="1" style="stop-color:rgb(98.823529%,94.117647%,94.117647%);stop-opacity:1;"/>
</linearGradient>
</defs>
<g id="surface1">
<path style=" stroke:none;fill-rule:nonzero;fill:url(#linear0);" d="M 13.085938 9.21875 L 15 9.609375 L 16.09375 11.914062 L 18.4375 10.429688 L 16.5625 7.226562 L 13.085938 6.875 Z M 13.085938 9.21875 "/>
<path style=" stroke:none;fill-rule:nonzero;fill:url(#linear1);" d="M 4.609375 5.15625 L 13.671875 5.15625 C 14.015625 5.15625 14.296875 5.4375 14.296875 5.78125 L 14.296875 11.40625 C 14.296875 11.75 14.015625 12.03125 13.671875 12.03125 L 4.609375 12.03125 C 4.265625 12.03125 3.984375 11.75 3.984375 11.40625 L 3.984375 5.78125 C 3.984375 5.4375 4.265625 5.15625 4.609375 5.15625 Z M 4.609375 5.15625 "/>
<path style=" stroke:none;fill-rule:nonzero;fill:url(#linear2);" d="M 3.984375 6.71875 L 14.296875 6.71875 L 14.296875 8.007812 L 3.984375 8.007812 Z M 3.984375 6.71875 "/>
<path style=" stroke:none;fill-rule:nonzero;fill:url(#linear3);" d="M 17.1875 6.5625 L 14.296875 6.300781 L 14.296875 7.890625 L 15.9375 8.125 L 16.875 10 L 14.765625 13.59375 C 14.765625 13.59375 13.867188 12.382812 12.890625 11.015625 C 12.164062 10 10.507812 11.054688 10.507812 11.054688 L 14.0625 16.523438 L 14.0625 19.375 L 18.125 19.375 L 18.125 15.625 L 19.375 10 Z M 17.1875 6.5625 "/>
<path style=" stroke:none;fill-rule:nonzero;fill:rgb(0%,0%,0%);fill-opacity:1;" d="M 19.703125 9.789062 L 17.515625 6.351562 C 17.453125 6.25 17.34375 6.183594 17.222656 6.171875 L 14.6875 5.941406 L 14.6875 5.78125 C 14.6875 5.21875 14.234375 4.765625 13.671875 4.765625 L 4.609375 4.765625 C 4.046875 4.765625 3.59375 5.21875 3.59375 5.78125 L 3.59375 11.40625 C 3.59375 11.96875 4.046875 12.421875 4.609375 12.421875 L 10.734375 12.421875 C 10.792969 12.421875 10.851562 12.410156 10.90625 12.382812 L 13.671875 16.640625 L 13.671875 19.375 C 13.671875 19.589844 13.847656 19.765625 14.0625 19.765625 C 14.277344 19.765625 14.453125 19.589844 14.453125 19.375 L 14.453125 16.523438 C 14.453125 16.449219 14.429688 16.375 14.390625 16.3125 L 11.070312 11.203125 C 11.507812 11.003906 12.238281 10.773438 12.574219 11.242188 C 12.664062 11.371094 12.761719 11.503906 12.851562 11.632812 C 13.707031 12.820312 14.445312 13.816406 14.453125 13.828125 C 14.53125 13.933594 14.65625 13.992188 14.785156 13.984375 C 14.917969 13.976562 15.035156 13.90625 15.101562 13.792969 L 17.210938 10.199219 C 17.277344 10.082031 17.285156 9.945312 17.222656 9.824219 L 16.285156 7.949219 C 16.230469 7.835938 16.121094 7.757812 15.992188 7.738281 L 14.6875 7.550781 L 14.6875 6.726562 L 16.960938 6.933594 L 18.957031 10.074219 L 17.742188 15.539062 C 17.738281 15.566406 17.734375 15.597656 17.734375 15.625 L 17.734375 19.375 C 17.734375 19.589844 17.910156 19.765625 18.125 19.765625 C 18.339844 19.765625 18.515625 19.589844 18.515625 19.375 L 18.515625 15.667969 L 19.757812 10.085938 C 19.777344 9.984375 19.761719 9.878906 19.703125 9.789062 Z M 4.375 7.109375 L 13.90625 7.109375 L 13.90625 7.617188 L 4.375 7.617188 Z M 4.609375 5.546875 L 13.671875 5.546875 C 13.800781 5.546875 13.90625 5.652344 13.90625 5.78125 L 13.90625 6.328125 L 4.375 6.328125 L 4.375 5.78125 C 4.375 5.652344 4.480469 5.546875 4.609375 5.546875 Z M 14.726562 12.886719 C 14.433594 12.484375 13.980469 11.863281 13.488281 11.179688 L 13.417969 11.082031 C 12.992188 10.347656 12.3125 9.996094 11.324219 10.277344 C 10.964844 10.378906 10.617188 10.53125 10.296875 10.726562 C 10.117188 10.84375 10.0625 11.085938 10.179688 11.265625 L 10.421875 11.640625 L 4.609375 11.640625 C 4.480469 11.640625 4.375 11.535156 4.375 11.40625 L 4.375 8.398438 L 13.90625 8.398438 L 13.90625 11.40625 C 13.90625 11.621094 14.082031 11.796875 14.296875 11.796875 C 14.511719 11.796875 14.6875 11.621094 14.6875 11.40625 L 14.6875 9.945312 L 14.730469 9.953125 L 15.5 11.574219 Z M 16.429688 9.984375 L 15.976562 10.757812 L 15.351562 9.441406 C 15.300781 9.332031 15.199219 9.25 15.078125 9.226562 L 14.6875 9.148438 L 14.6875 8.339844 L 15.679688 8.484375 Z M 16.429688 9.984375 "/>
<path style=" stroke:none;fill-rule:nonzero;fill:rgb(0%,0%,0%);fill-opacity:1;" d="M 8.4375 9.101562 L 5.273438 9.101562 C 5.058594 9.101562 4.882812 9.277344 4.882812 9.492188 C 4.882812 9.707031 5.058594 9.882812 5.273438 9.882812 L 8.4375 9.882812 C 8.652344 9.882812 8.828125 9.707031 8.828125 9.492188 C 8.828125 9.277344 8.652344 9.101562 8.4375 9.101562 Z M 8.4375 9.101562 "/>
<path style=" stroke:none;fill-rule:nonzero;fill:rgb(0%,0%,0%);fill-opacity:1;" d="M 15.28125 2.890625 C 15.511719 2.890625 15.730469 2.980469 15.890625 3.140625 C 16.050781 3.300781 16.140625 3.519531 16.140625 3.746094 C 16.140625 3.964844 16.316406 4.136719 16.53125 4.136719 C 16.746094 4.136719 16.921875 3.964844 16.921875 3.75 C 16.921875 2.84375 16.1875 2.109375 15.28125 2.109375 C 15.066406 2.109375 14.890625 2.285156 14.890625 2.5 C 14.890625 2.714844 15.066406 2.890625 15.28125 2.890625 Z M 15.28125 2.890625 "/>
<path style=" stroke:none;fill-rule:nonzero;fill:rgb(0%,0%,0%);fill-opacity:1;" d="M 15.285156 1.015625 C 16.792969 1.015625 18.015625 2.238281 18.015625 3.746094 C 18.015625 3.960938 18.191406 4.136719 18.40625 4.136719 C 18.621094 4.136719 18.796875 3.964844 18.796875 3.746094 C 18.796875 1.808594 17.226562 0.234375 15.285156 0.234375 C 15.066406 0.234375 14.894531 0.410156 14.894531 0.625 C 14.894531 0.839844 15.066406 1.015625 15.285156 1.015625 Z M 15.285156 1.015625 "/>
</g>
</svg>
