<svg width="36" height="36" viewBox="0 0 36 36" fill="none" xmlns="http://www.w3.org/2000/svg">
<path d="M27.2074 19.125C27.6733 20.4317 28.9103 21.375 30.375 21.375C32.2361 21.375 33.75 19.8611 33.75 18C33.75 16.1389 32.2361 14.625 30.375 14.625C28.9103 14.625 27.6732 15.5683 27.2073 16.875H25.875V6.75H27.2074C27.6733 8.05669 28.9103 9 30.375 9C32.2361 9 33.75 7.48608 33.75 5.625C33.75 3.76392 32.2361 2.25 30.375 2.25C28.9103 2.25 27.6732 3.19331 27.2073 4.5H24.75C24.1287 4.5 23.625 5.00372 23.625 5.625V16.875H21.375V19.125H23.625V30.375C23.625 30.9963 24.1287 31.5 24.75 31.5H27.2074C27.6733 32.8067 28.9103 33.75 30.375 33.75C32.2361 33.75 33.75 32.2361 33.75 30.375C33.75 28.5139 32.2361 27 30.375 27C28.9103 27 27.6732 27.9433 27.2073 29.25H25.875V19.125H27.2074Z" fill="black"/>
<path d="M11.8125 17.2406V26.9999L19.5677 23.5337C19.9819 23.3569 20.25 22.9498 20.25 22.4999V13.4999C20.25 13.4969 20.2487 13.4942 20.2487 13.4912L11.8125 17.2406Z" fill="black"/>
<path d="M11.6932 9.09146C11.412 8.96951 11.089 8.96951 10.8077 9.09146C10.8077 9.09146 2.87331 12.5051 2.8418 12.5224L11.2505 16.2595L19.6591 12.5224C19.6276 12.5051 11.6932 9.09146 11.6932 9.09146Z" fill="black"/>
<path d="M2.25 13.4999V22.4999C2.25 22.9498 2.51807 23.3569 2.93225 23.5337L10.6875 26.9999V17.2406L2.2513 13.4912C2.2513 13.4942 2.25 13.4969 2.25 13.4999Z" fill="black"/>
</svg>
