<?xml version="1.0" encoding="UTF-8"?>
<svg width="22px" height="24px" viewBox="0 0 22 24" version="1.1" xmlns="http://www.w3.org/2000/svg" xmlns:xlink="http://www.w3.org/1999/xlink">
    <!-- Generator: Sketch 63.1 (92452) - https://sketch.com -->
    <title>terminal</title>
    <desc>Created with Sketch.</desc>
    <g id="Page-1" stroke="none" stroke-width="1" fill="none" fill-rule="evenodd">
        <g id="Artboard" transform="translate(-160.000000, -677.000000)" fill="#448700" fill-rule="nonzero">
            <path d="M166.408106,694.178422 C167.635943,695.372562 168.829032,696.521 169.884508,697.994656 L169.884508,697.994656 L170.999908,699.552172 L172.115446,697.99475 C173.161487,696.534359 174.32917,695.40575 175.592078,694.178422 L175.592078,694.178422 L179.799991,694.178422 C179.801141,694.182078 180.214854,695.464906 180.683198,696.917047 L180.683198,696.917047 L175.106659,696.917047 L175.106659,698.410812 L175.106659,698.410812 L181.164981,698.410812 C181.607551,699.782937 181.989322,700.966766 182,701 L182,701 L160,701 C160.010862,700.966203 160.392542,699.782656 160.835019,698.410812 L160.835019,698.410812 L166.893341,698.410812 L166.893341,696.917047 L161.316802,696.917047 C161.781602,695.475734 162.192737,694.201062 162.200009,694.178422 L162.200009,694.178422 Z M171,677 C175.622408,677 179.066685,680.507891 179.066685,685.215734 C179.066685,690.7265 174.32825,692.519328 171,697.165953 C167.673269,692.520828 162.933315,690.725797 162.933315,685.215781 C162.933315,680.507891 166.379065,677 171,677 Z M171,683.283828 C169.787995,683.283828 168.799991,684.290141 168.799991,685.5245 C168.799991,686.758344 169.787995,687.765172 171,687.765172 C172.211913,687.765172 173.200009,686.758344 173.200009,685.5245 C173.200009,684.290141 172.211913,683.283828 171,683.283828 Z" id="terminal"></path>
        </g>
    </g>
</svg>