<svg width="301" height="77" viewBox="0 0 301 77" fill="none" xmlns="http://www.w3.org/2000/svg">
<path d="M25.1797 62.25C21.8223 62.25 19.1152 61.2041 17.0586 59.1123C15.0195 57.0205 14 54.0938 14 50.332V28.9219C14 24.4219 14.8877 20.9766 16.6631 18.5859C18.4561 16.1953 21.3652 15 25.3906 15C27.5879 15 29.5391 15.4043 31.2441 16.2129C32.9668 17.0215 34.3203 18.2344 35.3047 19.8516C36.2891 21.4512 36.7812 23.4727 36.7812 25.916V33.9316H27.5527V27.0762C27.5527 25.6875 27.377 24.7559 27.0254 24.2812C26.6738 23.7891 26.1289 23.543 25.3906 23.543C24.5293 23.543 23.9492 23.8594 23.6504 24.4922C23.3516 25.1074 23.2021 25.9336 23.2021 26.9707V50.2002C23.2021 51.4834 23.3867 52.3887 23.7559 52.916C24.1426 53.4434 24.6875 53.707 25.3906 53.707C26.1816 53.707 26.7354 53.3818 27.0518 52.7314C27.3857 52.0811 27.5527 51.2373 27.5527 50.2002V41.8418H36.8867V50.6221C36.8867 54.7002 35.8584 57.6621 33.8018 59.5078C31.7451 61.3359 28.8711 62.25 25.1797 62.25Z" fill="url(#paint0_linear_1640_2836)"/>
<path d="M51.0723 62.25C47.3633 62.25 44.5244 61.1338 42.5557 58.9014C40.6045 56.6514 39.6289 53.4082 39.6289 49.1719V27.1289C39.6289 23.1562 40.5957 20.1416 42.5293 18.085C44.4805 16.0283 47.3281 15 51.0723 15C54.8164 15 57.6553 16.0283 59.5889 18.085C61.54 20.1416 62.5156 23.1562 62.5156 27.1289V49.1719C62.5156 53.4082 61.5312 56.6514 59.5625 58.9014C57.6113 61.1338 54.7812 62.25 51.0723 62.25ZM51.1514 53.707C52.5576 53.707 53.2607 52.3447 53.2607 49.6201V26.9707C53.2607 24.6855 52.5752 23.543 51.2041 23.543C49.6572 23.543 48.8838 24.7119 48.8838 27.0498V49.6729C48.8838 51.1143 49.0596 52.1514 49.4111 52.7842C49.7627 53.3994 50.3428 53.707 51.1514 53.707Z" fill="url(#paint1_linear_1640_2836)"/>
<path d="M66.2598 61.8281V15.4219H79.0215C82.3613 15.4219 84.875 16.3535 86.5625 18.2168C88.25 20.0625 89.0938 22.7695 89.0938 26.3379V48.0645C89.0938 52.459 88.3203 55.8516 86.7734 58.2422C85.2441 60.6328 82.5547 61.8281 78.7051 61.8281H66.2598ZM75.5938 53.6279H77.2021C78.9072 53.6279 79.7598 52.8018 79.7598 51.1494V27.208C79.7598 25.6611 79.5488 24.668 79.127 24.2285C78.7227 23.7715 77.8877 23.543 76.6221 23.543H75.5938V53.6279Z" fill="url(#paint2_linear_1640_2836)"/>
<path d="M92.416 48.4072V42.29H106.021V48.4072H92.416Z" fill="url(#paint3_linear_1640_2836)"/>
<path d="M109.713 61.8281V15.4219H122.475C125.814 15.4219 128.328 16.3535 130.016 18.2168C131.703 20.0625 132.547 22.7695 132.547 26.3379V48.0645C132.547 52.459 131.773 55.8516 130.227 58.2422C128.697 60.6328 126.008 61.8281 122.158 61.8281H109.713ZM119.047 53.6279H120.655C122.36 53.6279 123.213 52.8018 123.213 51.1494V27.208C123.213 25.6611 123.002 24.668 122.58 24.2285C122.176 23.7715 121.341 23.543 120.075 23.543H119.047V53.6279Z" fill="url(#paint4_linear_1640_2836)"/>
<path d="M136.344 61.8281V15.4219H154.906V24.3867H145.783V33.4307H154.537V42.1582H145.783V52.7842H155.513V61.8281H136.344Z" fill="url(#paint5_linear_1640_2836)"/>
<path d="M158.598 61.8281V15.4219H167.879V53.918H177.424V61.8281H158.598Z" fill="url(#paint6_linear_1640_2836)"/>
<path d="M179.639 61.8281V15.4219H188.604V61.8281H179.639Z" fill="url(#paint7_linear_1640_2836)"/>
<path d="M196.566 61.8281L190.845 15.3955H199.678L203.079 46.9834L206.111 15.3955H214.944L209.223 61.8281H196.566Z" fill="url(#paint8_linear_1640_2836)"/>
<path d="M217.66 61.8281V15.4219H236.223V24.3867H227.1V33.4307H235.854V42.1582H227.1V52.7842H236.829V61.8281H217.66Z" fill="url(#paint9_linear_1640_2836)"/>
<path d="M239.914 61.8281V15.4219H254.152C256.525 15.4219 258.318 15.9668 259.531 17.0566C260.744 18.1289 261.553 19.6406 261.957 21.5918C262.379 23.5254 262.59 25.8018 262.59 28.4209C262.59 30.9521 262.265 32.9736 261.614 34.4854C260.981 35.9971 259.777 37.043 258.002 37.623C259.461 37.9219 260.48 38.6514 261.061 39.8115C261.658 40.9541 261.957 42.4395 261.957 44.2676V61.8281H252.808V43.6611C252.808 42.3076 252.526 41.4727 251.964 41.1562C251.419 40.8223 250.531 40.6553 249.301 40.6553V61.8281H239.914ZM249.354 32.6133H251.595C252.878 32.6133 253.52 31.2158 253.52 28.4209C253.52 26.6104 253.379 25.4238 253.098 24.8613C252.816 24.2988 252.289 24.0176 251.516 24.0176H249.354V32.6133Z" fill="url(#paint10_linear_1640_2836)"/>
<path d="M271.265 61.8281V46.5615L263.855 15.4219H273.058L275.642 31.1367L278.226 15.4219H287.401L280.019 46.5615V61.8281H271.265Z" fill="url(#paint11_linear_1640_2836)"/>
<defs>
<linearGradient id="paint0_linear_1640_2836" x1="14" y1="15" x2="29.8581" y2="106.759" gradientUnits="userSpaceOnUse">
<stop stop-color="#03265C"/>
<stop offset="1" stop-color="#02162E"/>
</linearGradient>
<linearGradient id="paint1_linear_1640_2836" x1="14" y1="15" x2="29.8581" y2="106.759" gradientUnits="userSpaceOnUse">
<stop stop-color="#03265C"/>
<stop offset="1" stop-color="#02162E"/>
</linearGradient>
<linearGradient id="paint2_linear_1640_2836" x1="14" y1="15" x2="29.8581" y2="106.759" gradientUnits="userSpaceOnUse">
<stop stop-color="#03265C"/>
<stop offset="1" stop-color="#02162E"/>
</linearGradient>
<linearGradient id="paint3_linear_1640_2836" x1="14" y1="15" x2="29.8581" y2="106.759" gradientUnits="userSpaceOnUse">
<stop stop-color="#03265C"/>
<stop offset="1" stop-color="#02162E"/>
</linearGradient>
<linearGradient id="paint4_linear_1640_2836" x1="14" y1="15" x2="29.8581" y2="106.759" gradientUnits="userSpaceOnUse">
<stop stop-color="#03265C"/>
<stop offset="1" stop-color="#02162E"/>
</linearGradient>
<linearGradient id="paint5_linear_1640_2836" x1="14" y1="15" x2="29.8581" y2="106.759" gradientUnits="userSpaceOnUse">
<stop stop-color="#03265C"/>
<stop offset="1" stop-color="#02162E"/>
</linearGradient>
<linearGradient id="paint6_linear_1640_2836" x1="14" y1="15" x2="29.8581" y2="106.759" gradientUnits="userSpaceOnUse">
<stop stop-color="#03265C"/>
<stop offset="1" stop-color="#02162E"/>
</linearGradient>
<linearGradient id="paint7_linear_1640_2836" x1="14" y1="15" x2="29.8581" y2="106.759" gradientUnits="userSpaceOnUse">
<stop stop-color="#03265C"/>
<stop offset="1" stop-color="#02162E"/>
</linearGradient>
<linearGradient id="paint8_linear_1640_2836" x1="14" y1="15" x2="29.8581" y2="106.759" gradientUnits="userSpaceOnUse">
<stop stop-color="#03265C"/>
<stop offset="1" stop-color="#02162E"/>
</linearGradient>
<linearGradient id="paint9_linear_1640_2836" x1="14" y1="15" x2="29.8581" y2="106.759" gradientUnits="userSpaceOnUse">
<stop stop-color="#03265C"/>
<stop offset="1" stop-color="#02162E"/>
</linearGradient>
<linearGradient id="paint10_linear_1640_2836" x1="14" y1="15" x2="29.8581" y2="106.759" gradientUnits="userSpaceOnUse">
<stop stop-color="#03265C"/>
<stop offset="1" stop-color="#02162E"/>
</linearGradient>
<linearGradient id="paint11_linear_1640_2836" x1="14" y1="15" x2="29.8581" y2="106.759" gradientUnits="userSpaceOnUse">
<stop stop-color="#03265C"/>
<stop offset="1" stop-color="#02162E"/>
</linearGradient>
</defs>
</svg>
