<?xml version="1.0" encoding="UTF-8"?>
<svg xmlns="http://www.w3.org/2000/svg" xmlns:xlink="http://www.w3.org/1999/xlink" width="20pt" height="20pt" viewBox="0 0 20 20" version="1.1">
<g id="surface1">
<path style=" stroke:none;fill-rule:nonzero;fill:rgb(31.372549%,45.882353%,55.294118%);fill-opacity:1;" d="M 14.042969 1.074219 L 14.042969 7.597656 L 0.292969 7.597656 L 0.292969 1.230469 C 0.292969 0.640625 0.640625 0.292969 1.074219 0.292969 L 13.261719 0.292969 C 13.695312 0.292969 14.042969 0.640625 14.042969 1.074219 Z M 14.042969 1.074219 "/>
<path style=" stroke:none;fill-rule:nonzero;fill:rgb(31.372549%,45.882353%,55.294118%);fill-opacity:1;" d="M 14.042969 7.597656 L 14.042969 17.285156 C 14.042969 17.71875 13.695312 18.066406 13.261719 18.066406 L 1.074219 18.066406 C 0.640625 18.066406 0.292969 17.71875 0.292969 17.441406 L 0.292969 7.597656 Z M 14.042969 7.597656 "/>
<path style=" stroke:none;fill-rule:nonzero;fill:rgb(18.039216%,87.45098%,98.823529%);fill-opacity:1;" d="M 2.246094 5.488281 L 2.246094 2.402344 C 2.246094 2.097656 2.488281 1.855469 2.792969 1.855469 L 12.324219 1.855469 C 12.628906 1.855469 12.871094 2.097656 12.871094 2.402344 L 12.871094 5.488281 C 12.871094 5.792969 12.628906 6.035156 12.324219 6.035156 L 2.792969 6.035156 C 2.488281 6.035156 2.246094 5.792969 2.246094 5.488281 Z M 2.246094 5.488281 "/>
<path style=" stroke:none;fill-rule:nonzero;fill:rgb(15.294118%,74.117647%,95.294118%);fill-opacity:1;" d="M 3.574219 6.035156 L 2.792969 6.035156 C 2.488281 6.035156 2.246094 5.792969 2.246094 5.488281 L 2.246094 2.402344 C 2.246094 2.097656 2.488281 1.855469 2.792969 1.855469 L 3.574219 1.855469 C 3.269531 1.855469 3.027344 2.097656 3.027344 2.402344 L 3.027344 5.488281 C 3.027344 5.792969 3.269531 6.035156 3.574219 6.035156 Z M 3.574219 6.035156 "/>
<path style=" stroke:none;fill-rule:nonzero;fill:rgb(96.078431%,96.078431%,96.078431%);fill-opacity:1;" d="M 12.832031 9.707031 L 12.832031 12.832031 L 7.539062 12.832031 L 7.539062 9.160156 L 12.285156 9.160156 C 12.589844 9.160156 12.832031 9.402344 12.832031 9.707031 Z M 12.832031 9.707031 "/>
<path style=" stroke:none;fill-rule:nonzero;fill:rgb(96.078431%,96.078431%,96.078431%);fill-opacity:1;" d="M 7.539062 9.160156 L 7.539062 12.832031 L 2.246094 12.832031 L 2.246094 9.785156 C 2.246094 9.402344 2.488281 9.160156 2.792969 9.160156 Z M 7.539062 9.160156 "/>
<path style=" stroke:none;fill-rule:nonzero;fill:rgb(96.078431%,96.078431%,96.078431%);fill-opacity:1;" d="M 7.539062 12.832031 L 7.539062 16.503906 L 2.792969 16.503906 C 2.488281 16.503906 2.246094 16.261719 2.246094 16.035156 L 2.246094 12.832031 Z M 7.539062 12.832031 "/>
<path style=" stroke:none;fill-rule:nonzero;fill:rgb(96.078431%,96.078431%,96.078431%);fill-opacity:1;" d="M 12.832031 12.832031 L 12.832031 15.957031 C 12.832031 16.261719 12.589844 16.503906 12.285156 16.503906 L 7.539062 16.503906 L 7.539062 12.832031 Z M 12.832031 12.832031 "/>
<path style=" stroke:none;fill-rule:nonzero;fill:rgb(90.196078%,90.196078%,90.196078%);fill-opacity:1;" d="M 12.285156 8.867188 L 2.792969 8.867188 C 2.316406 8.867188 1.953125 9.261719 1.953125 9.785156 L 1.953125 16.035156 C 1.953125 16.441406 2.347656 16.796875 2.792969 16.796875 L 12.285156 16.796875 C 12.746094 16.796875 13.125 16.417969 13.125 15.957031 L 13.125 9.707031 C 13.125 9.246094 12.746094 8.867188 12.285156 8.867188 Z M 12.539062 9.707031 L 12.539062 12.539062 L 7.832031 12.539062 L 7.832031 9.453125 L 12.285156 9.453125 C 12.425781 9.453125 12.539062 9.566406 12.539062 9.707031 Z M 2.539062 9.785156 C 2.539062 9.585938 2.640625 9.453125 2.792969 9.453125 L 7.246094 9.453125 L 7.246094 12.539062 L 2.539062 12.539062 Z M 2.539062 16.035156 L 2.539062 13.125 L 7.246094 13.125 L 7.246094 16.210938 L 2.792969 16.210938 C 2.644531 16.210938 2.539062 16.085938 2.539062 16.035156 Z M 12.539062 15.957031 C 12.539062 16.097656 12.425781 16.210938 12.285156 16.210938 L 7.832031 16.210938 L 7.832031 13.125 L 12.539062 13.125 Z M 12.539062 15.957031 "/>
<path style=" stroke:none;fill-rule:nonzero;fill:rgb(16.862745%,34.901961%,49.803922%);fill-opacity:1;" d="M 6.152344 14.960938 L 4.042969 14.960938 C 3.878906 14.960938 3.75 14.832031 3.75 14.667969 C 3.75 14.503906 3.878906 14.375 4.042969 14.375 L 6.152344 14.375 C 6.316406 14.375 6.445312 14.503906 6.445312 14.667969 C 6.445312 14.832031 6.316406 14.960938 6.152344 14.960938 Z M 6.152344 14.960938 "/>
<path style=" stroke:none;fill-rule:nonzero;fill:rgb(16.862745%,34.901961%,49.803922%);fill-opacity:1;" d="M 5.957031 10.703125 L 5.390625 10.703125 L 5.390625 10.136719 C 5.390625 9.972656 5.261719 9.84375 5.097656 9.84375 C 4.933594 9.84375 4.804688 9.972656 4.804688 10.136719 L 4.804688 10.703125 L 4.238281 10.703125 C 4.074219 10.703125 3.945312 10.832031 3.945312 10.996094 C 3.945312 11.160156 4.074219 11.289062 4.238281 11.289062 L 4.804688 11.289062 L 4.804688 11.855469 C 4.804688 12.019531 4.933594 12.148438 5.097656 12.148438 C 5.261719 12.148438 5.390625 12.019531 5.390625 11.855469 L 5.390625 11.289062 L 5.957031 11.289062 C 6.121094 11.289062 6.25 11.160156 6.25 10.996094 C 6.25 10.832031 6.121094 10.703125 5.957031 10.703125 Z M 5.957031 10.703125 "/>
<path style=" stroke:none;fill-rule:nonzero;fill:rgb(16.862745%,34.901961%,49.803922%);fill-opacity:1;" d="M 10.414062 10.996094 L 10.8125 10.597656 C 10.925781 10.480469 10.925781 10.296875 10.8125 10.183594 C 10.699219 10.066406 10.515625 10.066406 10.402344 10.183594 L 10 10.582031 L 9.597656 10.183594 C 9.484375 10.066406 9.300781 10.066406 9.1875 10.183594 C 9.074219 10.296875 9.074219 10.480469 9.1875 10.597656 L 9.585938 10.996094 L 9.1875 11.394531 C 9.074219 11.511719 9.074219 11.695312 9.1875 11.808594 C 9.242188 11.867188 9.316406 11.898438 9.390625 11.898438 C 9.464844 11.898438 9.542969 11.867188 9.597656 11.808594 L 10 11.410156 L 10.402344 11.808594 C 10.457031 11.867188 10.535156 11.898438 10.609375 11.898438 C 10.683594 11.898438 10.757812 11.867188 10.8125 11.808594 C 10.925781 11.695312 10.925781 11.511719 10.8125 11.394531 Z M 10.414062 10.996094 "/>
<path style=" stroke:none;fill-rule:nonzero;fill:rgb(16.862745%,34.901961%,49.803922%);fill-opacity:1;" d="M 11.347656 5.195312 L 10.800781 5.195312 C 10.421875 5.195312 10.117188 4.890625 10.117188 4.511719 L 10.117188 3.378906 C 10.117188 3 10.421875 2.695312 10.800781 2.695312 L 11.347656 2.695312 C 11.726562 2.695312 12.03125 3 12.03125 3.378906 L 12.03125 4.511719 C 12.03125 4.890625 11.726562 5.195312 11.347656 5.195312 Z M 10.800781 3.28125 C 10.746094 3.28125 10.703125 3.324219 10.703125 3.378906 L 10.703125 4.511719 C 10.703125 4.566406 10.746094 4.609375 10.800781 4.609375 L 11.347656 4.609375 C 11.402344 4.609375 11.445312 4.566406 11.445312 4.511719 L 11.445312 3.378906 C 11.445312 3.324219 11.402344 3.28125 11.347656 3.28125 Z M 10.800781 3.28125 "/>
<path style=" stroke:none;fill-rule:nonzero;fill:rgb(16.862745%,34.901961%,49.803922%);fill-opacity:1;" d="M 14.042969 7.597656 L 14.042969 6.71875 L 1.660156 6.71875 C 1.445312 6.71875 1.269531 6.542969 1.269531 6.328125 L 1.269531 1.230469 C 1.269531 0.640625 1.617188 0.292969 2.050781 0.292969 L 1.074219 0.292969 C 0.640625 0.292969 0.292969 0.640625 0.292969 1.230469 L 0.292969 17.441406 C 0.292969 17.71875 0.640625 18.066406 1.074219 18.066406 L 2.050781 18.066406 C 1.617188 18.066406 1.269531 17.71875 1.269531 17.441406 L 1.269531 7.988281 C 1.269531 7.773438 1.445312 7.597656 1.660156 7.597656 Z M 14.042969 7.597656 "/>
<path style=" stroke:none;fill-rule:nonzero;fill:rgb(98.039216%,82.352941%,2.745098%);fill-opacity:1;" d="M 19.707031 11.425781 C 19.707031 10.929688 17.90625 10.527344 15.683594 10.527344 C 13.460938 10.527344 11.660156 10.929688 11.660156 11.425781 C 11.660156 11.921875 13.460938 12.324219 15.683594 12.324219 C 17.90625 12.324219 19.707031 11.921875 19.707031 11.425781 Z M 19.707031 11.425781 "/>
<path style=" stroke:none;fill-rule:nonzero;fill:rgb(98.039216%,82.352941%,2.745098%);fill-opacity:1;" d="M 19.707031 16.964844 L 19.707031 18.808594 C 19.707031 19.394531 17.90625 19.707031 15.683594 19.707031 C 13.460938 19.707031 11.660156 19.394531 11.660156 18.808594 L 11.660156 16.964844 C 11.660156 17.550781 13.460938 17.863281 15.683594 17.863281 C 17.90625 17.863281 19.707031 17.550781 19.707031 16.964844 Z M 19.707031 16.964844 "/>
<path style=" stroke:none;fill-rule:nonzero;fill:rgb(98.039216%,64.705882%,8.235294%);fill-opacity:1;" d="M 19.707031 15.117188 L 19.707031 16.964844 C 19.707031 17.550781 17.90625 17.863281 15.683594 17.863281 C 13.460938 17.863281 11.660156 17.550781 11.660156 16.964844 L 11.660156 15.117188 C 11.660156 15.703125 13.460938 16.015625 15.683594 16.015625 C 17.90625 16.015625 19.707031 15.703125 19.707031 15.117188 Z M 19.707031 15.117188 "/>
<path style=" stroke:none;fill-rule:nonzero;fill:rgb(98.039216%,82.352941%,2.745098%);fill-opacity:1;" d="M 19.707031 13.269531 L 19.707031 15.117188 C 19.707031 15.703125 17.90625 16.015625 15.683594 16.015625 C 13.460938 16.015625 11.660156 15.703125 11.660156 15.117188 L 11.660156 13.269531 C 11.660156 13.855469 13.460938 14.167969 15.683594 14.167969 C 17.90625 14.167969 19.707031 13.855469 19.707031 13.269531 Z M 19.707031 13.269531 "/>
<path style=" stroke:none;fill-rule:nonzero;fill:rgb(98.039216%,64.705882%,8.235294%);fill-opacity:1;" d="M 19.707031 11.425781 L 19.707031 13.269531 C 19.707031 13.855469 17.90625 14.167969 15.683594 14.167969 C 13.460938 14.167969 11.660156 13.855469 11.660156 13.269531 L 11.660156 11.425781 C 11.660156 12.011719 13.460938 12.324219 15.683594 12.324219 C 17.90625 12.324219 19.707031 12.011719 19.707031 11.425781 Z M 19.707031 11.425781 "/>
<path style=" stroke:none;fill-rule:nonzero;fill:rgb(16.862745%,34.901961%,49.803922%);fill-opacity:1;" d="M 9.34375 15.632812 C 9.269531 15.632812 9.191406 15.601562 9.132812 15.542969 C 9.019531 15.429688 9.019531 15.246094 9.132812 15.128906 L 10.460938 13.800781 C 10.574219 13.6875 10.761719 13.6875 10.875 13.800781 C 10.992188 13.917969 10.992188 14.101562 10.875 14.214844 L 9.546875 15.542969 C 9.492188 15.601562 9.417969 15.632812 9.34375 15.632812 Z M 9.34375 15.632812 "/>
<path style=" stroke:none;fill-rule:nonzero;fill:rgb(16.862745%,34.901961%,49.803922%);fill-opacity:1;" d="M 9.726562 13.925781 C 9.726562 14.089844 9.597656 14.21875 9.433594 14.21875 C 9.269531 14.21875 9.140625 14.089844 9.140625 13.925781 C 9.140625 13.761719 9.269531 13.632812 9.433594 13.632812 C 9.597656 13.632812 9.726562 13.761719 9.726562 13.925781 Z M 9.726562 13.925781 "/>
<path style=" stroke:none;fill-rule:nonzero;fill:rgb(16.862745%,34.901961%,49.803922%);fill-opacity:1;" d="M 10.898438 15.410156 C 10.898438 15.574219 10.769531 15.703125 10.605469 15.703125 C 10.441406 15.703125 10.3125 15.574219 10.3125 15.410156 C 10.3125 15.246094 10.441406 15.117188 10.605469 15.117188 C 10.769531 15.117188 10.898438 15.246094 10.898438 15.410156 Z M 10.898438 15.410156 "/>
<path style=" stroke:none;fill-rule:nonzero;fill:rgb(0%,0%,0%);fill-opacity:1;" d="M 18.585938 10.46875 C 17.847656 10.316406 16.84375 10.234375 15.683594 10.234375 C 15.207031 10.234375 14.753906 10.246094 14.335938 10.277344 L 14.335938 1.074219 C 14.335938 0.480469 13.855469 0 13.261719 0 L 1.074219 0 C 0.453125 0 0 0.519531 0 1.230469 L 0 17.441406 C 0 17.863281 0.46875 18.359375 1.074219 18.359375 L 11.367188 18.359375 L 11.367188 18.808594 C 11.367188 19.46875 12.429688 19.691406 12.78125 19.765625 C 13.519531 19.917969 14.523438 20 15.683594 20 C 16.84375 20 17.847656 19.917969 18.585938 19.765625 C 18.9375 19.691406 20 19.46875 20 18.808594 L 20 11.425781 C 20 10.765625 18.9375 10.542969 18.585938 10.46875 Z M 19.414062 15.113281 C 19.40625 15.128906 19.285156 15.339844 18.371094 15.519531 C 17.675781 15.652344 16.746094 15.722656 15.683594 15.722656 C 14.621094 15.722656 13.691406 15.652344 12.996094 15.519531 C 12.058594 15.339844 11.953125 15.117188 11.953125 15.117188 L 11.953125 13.972656 C 12.257812 14.117188 12.605469 14.191406 12.78125 14.230469 C 13.519531 14.382812 14.523438 14.464844 15.683594 14.464844 C 16.84375 14.464844 17.847656 14.382812 18.585938 14.230469 C 18.761719 14.191406 19.109375 14.117188 19.414062 13.972656 Z M 7.539062 15.175781 C 7.375 15.175781 7.246094 15.304688 7.246094 15.46875 L 7.246094 16.210938 L 2.792969 16.210938 C 2.640625 16.210938 2.539062 16.085938 2.539062 16.035156 L 2.539062 13.125 L 7.246094 13.125 L 7.246094 14.101562 C 7.246094 14.265625 7.375 14.394531 7.539062 14.394531 C 7.703125 14.394531 7.832031 14.265625 7.832031 14.101562 L 7.832031 13.125 L 11.367188 13.125 L 11.367188 16.210938 L 7.832031 16.210938 L 7.832031 15.46875 C 7.832031 15.304688 7.703125 15.175781 7.539062 15.175781 Z M 12.539062 10.523438 C 12.089844 10.636719 11.367188 10.878906 11.367188 11.425781 L 11.367188 12.539062 L 7.832031 12.539062 L 7.832031 9.453125 L 12.285156 9.453125 C 12.425781 9.453125 12.539062 9.566406 12.539062 9.707031 Z M 7.246094 12.539062 L 2.539062 12.539062 L 2.539062 9.785156 C 2.539062 9.585938 2.640625 9.453125 2.792969 9.453125 L 7.246094 9.453125 Z M 19.414062 13.269531 C 19.40625 13.28125 19.285156 13.496094 18.371094 13.671875 C 17.675781 13.804688 16.746094 13.878906 15.683594 13.878906 C 14.621094 13.878906 13.691406 13.804688 12.996094 13.671875 C 12.058594 13.492188 11.953125 13.269531 11.953125 13.269531 L 11.953125 12.128906 C 12.257812 12.273438 12.605469 12.347656 12.78125 12.382812 C 13.519531 12.535156 14.523438 12.617188 15.683594 12.617188 C 16.84375 12.617188 17.847656 12.535156 18.585938 12.382812 C 18.761719 12.347656 19.109375 12.273438 19.414062 12.128906 Z M 18.371094 11.027344 C 19.253906 11.195312 19.398438 11.398438 19.414062 11.425781 C 19.398438 11.453125 19.253906 11.65625 18.371094 11.824219 C 17.675781 11.960938 16.746094 12.03125 15.683594 12.03125 C 14.621094 12.03125 13.691406 11.960938 12.996094 11.824219 C 12.113281 11.65625 11.96875 11.453125 11.953125 11.425781 C 11.96875 11.398438 12.113281 11.195312 12.996094 11.027344 C 13.691406 10.890625 14.621094 10.820312 15.683594 10.820312 C 16.746094 10.820312 17.675781 10.890625 18.371094 11.027344 Z M 1.074219 17.773438 C 0.792969 17.773438 0.585938 17.539062 0.585938 17.441406 L 0.585938 7.890625 L 10.234375 7.890625 C 10.398438 7.890625 10.527344 7.761719 10.527344 7.597656 C 10.527344 7.433594 10.398438 7.304688 10.234375 7.304688 L 0.585938 7.304688 L 0.585938 1.230469 C 0.585938 0.839844 0.777344 0.585938 1.074219 0.585938 L 13.261719 0.585938 C 13.53125 0.585938 13.75 0.804688 13.75 1.074219 L 13.75 7.304688 L 11.601562 7.304688 C 11.4375 7.304688 11.308594 7.433594 11.308594 7.597656 C 11.308594 7.761719 11.4375 7.890625 11.601562 7.890625 L 13.75 7.890625 L 13.75 10.324219 C 13.527344 10.347656 13.320312 10.375 13.125 10.40625 L 13.125 9.707031 C 13.125 9.246094 12.746094 8.867188 12.285156 8.867188 L 2.792969 8.867188 C 2.316406 8.867188 1.953125 9.261719 1.953125 9.785156 L 1.953125 16.035156 C 1.953125 16.441406 2.347656 16.796875 2.792969 16.796875 L 11.367188 16.796875 L 11.367188 17.773438 Z M 18.371094 19.207031 C 17.675781 19.34375 16.746094 19.414062 15.683594 19.414062 C 14.621094 19.414062 13.691406 19.34375 12.996094 19.207031 C 12.058594 19.03125 11.953125 18.808594 11.953125 18.808594 L 11.953125 17.667969 C 12.257812 17.808594 12.605469 17.882812 12.78125 17.917969 C 13.519531 18.074219 14.523438 18.152344 15.683594 18.152344 C 16.242188 18.152344 16.769531 18.136719 17.253906 18.097656 C 17.414062 18.082031 17.535156 17.941406 17.527344 17.785156 C 17.511719 17.621094 17.371094 17.5 17.210938 17.511719 C 16.742188 17.550781 16.226562 17.566406 15.683594 17.566406 C 14.621094 17.566406 13.691406 17.496094 12.996094 17.363281 C 12.058594 17.183594 11.953125 16.964844 11.953125 16.964844 L 11.953125 15.820312 C 12.257812 15.964844 12.605469 16.039062 12.78125 16.074219 C 13.519531 16.226562 14.523438 16.308594 15.683594 16.308594 C 16.84375 16.308594 17.847656 16.226562 18.585938 16.074219 C 18.761719 16.039062 19.109375 15.964844 19.414062 15.820312 L 19.414062 16.960938 C 19.40625 16.972656 19.300781 17.164062 18.527344 17.332031 C 18.367188 17.367188 18.265625 17.523438 18.300781 17.683594 C 18.332031 17.839844 18.496094 17.941406 18.648438 17.90625 C 18.808594 17.871094 19.128906 17.800781 19.414062 17.667969 L 19.414062 18.804688 C 19.40625 18.816406 19.285156 19.035156 18.371094 19.207031 Z M 18.371094 19.207031 "/>
<path style=" stroke:none;fill-rule:nonzero;fill:rgb(0%,0%,0%);fill-opacity:1;" d="M 13.164062 5.488281 L 13.164062 2.402344 C 13.164062 1.941406 12.785156 1.5625 12.324219 1.5625 L 5.859375 1.5625 C 5.695312 1.5625 5.566406 1.691406 5.566406 1.855469 C 5.566406 2.019531 5.695312 2.148438 5.859375 2.148438 L 12.324219 2.148438 C 12.464844 2.148438 12.578125 2.261719 12.578125 2.402344 L 12.578125 5.488281 C 12.578125 5.628906 12.464844 5.742188 12.324219 5.742188 L 2.792969 5.742188 C 2.652344 5.742188 2.539062 5.628906 2.539062 5.488281 L 2.539062 2.402344 C 2.539062 2.261719 2.652344 2.148438 2.792969 2.148438 L 4.492188 2.148438 C 4.65625 2.148438 4.785156 2.019531 4.785156 1.855469 C 4.785156 1.691406 4.65625 1.5625 4.492188 1.5625 L 2.792969 1.5625 C 2.332031 1.5625 1.953125 1.941406 1.953125 2.402344 L 1.953125 5.488281 C 1.953125 5.949219 2.332031 6.328125 2.792969 6.328125 L 12.324219 6.328125 C 12.785156 6.328125 13.164062 5.949219 13.164062 5.488281 Z M 13.164062 5.488281 "/>
<path style=" stroke:none;fill-rule:nonzero;fill:rgb(0%,0%,0%);fill-opacity:1;" d="M 6.152344 14.375 L 4.042969 14.375 C 3.878906 14.375 3.75 14.503906 3.75 14.667969 C 3.75 14.832031 3.878906 14.960938 4.042969 14.960938 L 6.152344 14.960938 C 6.316406 14.960938 6.445312 14.832031 6.445312 14.667969 C 6.445312 14.503906 6.316406 14.375 6.152344 14.375 Z M 6.152344 14.375 "/>
<path style=" stroke:none;fill-rule:nonzero;fill:rgb(0%,0%,0%);fill-opacity:1;" d="M 4.238281 11.289062 L 4.804688 11.289062 L 4.804688 11.855469 C 4.804688 12.019531 4.933594 12.148438 5.097656 12.148438 C 5.261719 12.148438 5.390625 12.019531 5.390625 11.855469 L 5.390625 11.289062 L 5.957031 11.289062 C 6.121094 11.289062 6.25 11.160156 6.25 10.996094 C 6.25 10.832031 6.121094 10.703125 5.957031 10.703125 L 5.390625 10.703125 L 5.390625 10.136719 C 5.390625 9.972656 5.261719 9.84375 5.097656 9.84375 C 4.933594 9.84375 4.804688 9.972656 4.804688 10.136719 L 4.804688 10.703125 L 4.238281 10.703125 C 4.074219 10.703125 3.945312 10.832031 3.945312 10.996094 C 3.945312 11.160156 4.074219 11.289062 4.238281 11.289062 Z M 4.238281 11.289062 "/>
<path style=" stroke:none;fill-rule:nonzero;fill:rgb(0%,0%,0%);fill-opacity:1;" d="M 10.8125 10.183594 C 10.699219 10.066406 10.515625 10.066406 10.402344 10.183594 L 10 10.582031 L 9.597656 10.183594 C 9.484375 10.066406 9.300781 10.066406 9.1875 10.183594 C 9.074219 10.296875 9.074219 10.480469 9.1875 10.597656 L 9.585938 10.996094 L 9.1875 11.394531 C 9.074219 11.511719 9.074219 11.695312 9.1875 11.808594 C 9.300781 11.925781 9.484375 11.925781 9.597656 11.808594 L 10 11.410156 L 10.402344 11.808594 C 10.515625 11.925781 10.699219 11.925781 10.8125 11.808594 C 10.925781 11.695312 10.925781 11.511719 10.8125 11.394531 L 10.414062 10.996094 L 10.8125 10.597656 C 10.925781 10.480469 10.925781 10.296875 10.8125 10.183594 Z M 10.8125 10.183594 "/>
<path style=" stroke:none;fill-rule:nonzero;fill:rgb(0%,0%,0%);fill-opacity:1;" d="M 9.34375 15.632812 C 9.417969 15.632812 9.492188 15.601562 9.546875 15.542969 L 10.875 14.214844 C 10.992188 14.101562 10.992188 13.917969 10.875 13.800781 C 10.761719 13.6875 10.574219 13.6875 10.460938 13.800781 L 9.132812 15.128906 C 9.019531 15.246094 9.019531 15.429688 9.132812 15.542969 C 9.191406 15.601562 9.269531 15.632812 9.34375 15.632812 Z M 9.34375 15.632812 "/>
<path style=" stroke:none;fill-rule:nonzero;fill:rgb(0%,0%,0%);fill-opacity:1;" d="M 9.726562 13.925781 C 9.726562 14.089844 9.597656 14.21875 9.433594 14.21875 C 9.269531 14.21875 9.140625 14.089844 9.140625 13.925781 C 9.140625 13.761719 9.269531 13.632812 9.433594 13.632812 C 9.597656 13.632812 9.726562 13.761719 9.726562 13.925781 Z M 9.726562 13.925781 "/>
<path style=" stroke:none;fill-rule:nonzero;fill:rgb(0%,0%,0%);fill-opacity:1;" d="M 10.898438 15.410156 C 10.898438 15.574219 10.769531 15.703125 10.605469 15.703125 C 10.441406 15.703125 10.3125 15.574219 10.3125 15.410156 C 10.3125 15.246094 10.441406 15.117188 10.605469 15.117188 C 10.769531 15.117188 10.898438 15.246094 10.898438 15.410156 Z M 10.898438 15.410156 "/>
<path style=" stroke:none;fill-rule:nonzero;fill:rgb(0%,0%,0%);fill-opacity:1;" d="M 11.347656 5.195312 C 11.726562 5.195312 12.03125 4.890625 12.03125 4.511719 L 12.03125 3.378906 C 12.03125 3 11.726562 2.695312 11.347656 2.695312 L 10.800781 2.695312 C 10.421875 2.695312 10.117188 3 10.117188 3.378906 L 10.117188 4.511719 C 10.117188 4.890625 10.421875 5.195312 10.800781 5.195312 Z M 10.703125 4.511719 L 10.703125 3.378906 C 10.703125 3.324219 10.746094 3.28125 10.800781 3.28125 L 11.347656 3.28125 C 11.402344 3.28125 11.445312 3.324219 11.445312 3.378906 L 11.445312 4.511719 C 11.445312 4.566406 11.402344 4.609375 11.347656 4.609375 L 10.800781 4.609375 C 10.746094 4.609375 10.703125 4.566406 10.703125 4.511719 Z M 10.703125 4.511719 "/>
</g>
</svg>
