<svg width="512" height="512" xmlns="http://www.w3.org/2000/svg">

 <g>
  <title>background</title>
  <rect fill="none" id="canvas_background" height="402" width="582" y="-1" x="-1"/>
 </g>
 <g>
  <title fill="#ffffff" stroke="#000000" stroke-opacity="0">Layer 1</title>
  <path fill="#ffffff" stroke="#000000" stroke-opacity="0" id="svg_3" d="m512,34.88c0.039,-9.349 -3.569,-18.126 -10.159,-24.716s-15.384,-10.192 -24.715,-10.158c-9.322,0.039 -18.098,3.702 -24.711,10.314c-2.8,2.8 -7.893,8.848 -10.679,12.205c-2.926,3.525 -2.442,8.755 1.083,11.68c3.524,2.926 8.754,2.442 11.68,-1.083c4.364,-5.256 7.971,-9.395 9.646,-11.071c3.498,-3.497 8.132,-5.435 13.05,-5.456c0.027,0 0.052,0 0.079,0c4.862,0 9.419,1.88 12.837,5.299c3.437,3.437 5.32,8.024 5.299,12.916c-0.021,4.917 -1.959,9.551 -5.456,13.05c-3.131,3.131 -13.893,11.668 -29.312,22.439c-9.121,-15.594 -26.037,-26.099 -45.37,-26.099l-121.464,0c-16.396,0 -31.81,6.385 -43.405,17.978l-242.79,242.793c-4.909,4.909 -7.613,11.436 -7.613,18.378c0,6.942 2.704,13.47 7.613,18.378l162.667,162.667c5.068,5.067 11.722,7.6 18.378,7.6c6.656,0 13.312,-2.534 18.378,-7.6l242.792,-242.791c11.593,-11.594 17.978,-27.008 17.978,-43.405l0,-121.463c0,-3.585 -0.363,-7.085 -1.051,-10.47c17.551,-12.077 30.435,-22.18 34.929,-26.674c6.614,-6.612 10.277,-15.388 10.316,-24.711zm-60.783,183.318c0,11.965 -4.66,23.214 -13.119,31.673l-242.792,242.793c-3.664,3.665 -9.63,3.665 -13.295,0l-162.667,-162.667c-1.775,-1.775 -2.754,-4.136 -2.754,-6.648s0.978,-4.872 2.754,-6.647l242.791,-242.791c8.461,-8.46 19.709,-13.119 31.673,-13.119l121.463,0c13.64,0 25.53,7.637 31.618,18.859c-9.798,6.488 -20.769,13.387 -32.408,20.171c-0.363,-0.398 -0.734,-0.792 -1.119,-1.177c-13.584,-13.584 -35.686,-13.584 -49.27,0c-13.584,13.584 -13.584,35.686 0,49.27c6.792,6.792 15.714,10.187 24.635,10.187c8.921,0 17.843,-3.395 24.635,-10.187c9.067,-9.067 12.072,-21.926 9.036,-33.517c10.123,-5.893 19.844,-11.916 28.815,-17.743c0.001,0.028 0.003,0.054 0.003,0.081l0,121.462l0.001,0zm-69.898,-91.191c1.457,2.897 4.381,4.569 7.417,4.569c1.253,0 2.526,-0.285 3.722,-0.887c4.862,-2.446 9.707,-4.99 14.504,-7.596c0.048,4.735 -1.722,9.485 -5.328,13.091c-7.116,7.115 -18.692,7.115 -25.808,0c-7.115,-7.116 -7.115,-18.692 0,-25.808c3.558,-3.558 8.231,-5.336 12.904,-5.336c3.7,0 7.389,1.134 10.536,3.363c-4.695,2.552 -9.46,5.051 -14.263,7.468c-4.095,2.057 -5.744,7.044 -3.684,11.136z"/>
  <path fill="#ffffff" stroke="#000000" stroke-opacity="0" id="svg_6" d="m247.162,168.962c-4.581,0 -8.295,3.713 -8.295,8.295l0,175.179c0,4.581 3.714,8.295 8.295,8.295s8.295,-3.714 8.295,-8.295l0,-175.179c0,-4.582 -3.714,-8.295 -8.295,-8.295z"/>
  <path fill="#ffffff" stroke="#000000" stroke-opacity="0" id="svg_9" d="m209.231,240.213c-13.583,-13.586 -35.686,-13.585 -49.268,-0.001c-13.584,13.584 -13.584,35.686 0,49.27c6.793,6.793 15.713,10.188 24.635,10.187c8.92,0 17.843,-3.397 24.634,-10.187c6.581,-6.581 10.205,-15.329 10.205,-24.635s-3.625,-18.055 -10.206,-24.634zm-11.73,37.537c-7.116,7.116 -18.692,7.115 -25.807,0c-7.115,-7.116 -7.115,-18.692 0,-25.808c3.558,-3.558 8.231,-5.336 12.904,-5.336s9.346,1.778 12.904,5.336c3.447,3.447 5.345,8.029 5.345,12.904c-0.001,4.875 -1.899,9.457 -5.346,12.904z"/>
  <path fill="#ffffff" stroke="#000000" stroke-opacity="0" id="svg_12" d="m334.36,240.212c-13.584,-13.585 -35.687,-13.584 -49.268,0c-13.584,13.584 -13.584,35.686 0,49.27c6.792,6.792 15.713,10.187 24.635,10.187c8.921,0 17.843,-3.395 24.634,-10.187c13.583,-13.584 13.583,-35.686 -0.001,-49.27zm-11.731,37.538c-7.116,7.116 -18.692,7.115 -25.807,0c-7.115,-7.116 -7.115,-18.692 0,-25.808c3.558,-3.558 8.231,-5.336 12.904,-5.336s9.346,1.778 12.904,5.336c7.115,7.116 7.115,18.692 -0.001,25.808z"/>
 </g>
</svg>