<svg width="24" height="24" xmlns="http://www.w3.org/2000/svg">
 <!-- Uploaded to SVGRepo https://www.svgrepo.com -->

 <title>ic_fluent_person_feedback_24_filled</title>
 <desc>Created with Sketch.</desc>
 <g>
  <title>background</title>
  <rect fill="none" id="canvas_background" height="402" width="582" y="-1" x="-1"/>
 </g>
 <g>
  <title fill="#ffffff">Layer 1</title>
  <path fill="#ffffff" id="🎨-Color" d="m10.75,14c1.242641,0 2.25,1.007359 2.25,2.25l0,1.501977l-0.007884,0.108463c-0.310755,2.126204 -2.220594,3.148597 -5.425326,3.148597c-3.193178,0 -5.133489,-1.010696 -5.552327,-3.112459l-0.014463,-0.146578l0,-1.5c0,-1.242641 1.007359,-2.25 2.25,-2.25l6.5,0zm-3.25,-8c1.932997,0 3.5,1.567003 3.5,3.5c0,1.932997 -1.567003,3.5 -3.5,3.5c-1.932997,0 -3.5,-1.567003 -3.5,-3.5c0,-1.932997 1.567003,-3.5 3.5,-3.5zm12.25,-4c1.242641,0 2.25,1.007359 2.25,2.25l0,3.5c0,1.242641 -1.007359,2.25 -2.25,2.25l-1.552811,0l-2.541643,2.207073c-0.41706,0.362048 -1.048652,0.317452 -1.410701,-0.099608c-0.157903,-0.181896 -0.244845,-0.414675 -0.244845,-0.655206l-0.000666,-1.466065c-1.124667,-0.124664 -1.999334,-1.078284 -1.999334,-2.236194l0,-3.5c0,-1.242641 1.007359,-2.25 2.25,-2.25l5.5,0z"/>
 </g>
</svg>