<svg width="489.00000000000006" height="489.00000000000006" xmlns="http://www.w3.org/2000/svg">

 <g>
  <title>background</title>
  <rect fill="none" id="canvas_background" height="402" width="582" y="-1" x="-1"/>
 </g>
 <g>
  <title fill="#ffffff">Layer 1</title>
  <path fill="#ffffff" id="svg_3" d="m192.5,0l-171.7,0c-11.4,0 -20.8,9.4 -20.8,20.8l0,171.7c0,11.4 9.4,20.8 20.8,20.8l171.7,0c11.4,0 20.8,-9.4 20.8,-20.8l0,-171.7c0,-11.4 -9.4,-20.8 -20.8,-20.8zm-20.8,172.7l-131.1,0l0,-132.1l131.1,0l0,132.1l0,0z"/>
  <path fill="#ffffff" id="svg_4" d="m192.5,275.7l-171.7,0c-11.4,0 -20.8,9.4 -20.8,20.8l0,171.7c0,11.4 9.4,20.8 20.8,20.8l171.7,0c11.4,0 20.8,-9.4 20.8,-19.8l0,-172.7c0,-11.4 -9.4,-20.8 -20.8,-20.8zm-20.8,172.7l-131.1,0l0,-132.1l131.1,0l0,132.1l0,0z"/>
  <path fill="#ffffff" id="svg_5" d="m262.2,126.9l206,0c11.4,0 20.8,-9.4 20.8,-20.8s-9.4,-20.8 -20.8,-20.8l-206,0c-11.4,0 -20.8,9.4 -20.8,20.8c0,11.5 9.3,20.8 20.8,20.8z"/>
  <path fill="#ffffff" id="svg_6" d="m468.2,361l-206,0c-11.4,0 -20.8,9.4 -20.8,20.8s9.4,20.8 20.8,20.8l206,0c11.4,0 20.8,-9.4 20.8,-20.8s-9.4,-20.8 -20.8,-20.8z"/>
 </g>
</svg>