<svg width="583" height="402" xmlns="http://www.w3.org/2000/svg">

 <g>
  <title>background</title>
  <rect fill="none" id="canvas_background" height="404" width="585" y="-1" x="-1"/>
 </g>
 <g>
  <title>Layer 1</title>
  <path id="svg_2" fill="#aaaaaa" d="m412.150834,94.538433l-269.234,0c-6.01,0 -10.878,4.874 -10.878,10.879l0,207.593c0,6.005 4.868,10.878 10.878,10.878l269.234,0c6.005,0 10.878,-4.873 10.878,-10.878l0,-207.593c0,-6.005 -4.873,-10.879 -10.878,-10.879zm-13.592,189.008c0,6.005 -4.873,10.878 -10.878,10.878l-197.624,0c-6.01,0 -10.878,-4.873 -10.878,-10.878l0,-148.666c0,-6.005 4.868,-10.878 10.878,-10.878l197.623,0c6.005,0 10.878,4.873 10.878,10.878l0,148.666l0.001,0z"/>
  <path id="svg_3" fill="#aaaaaa" d="m205.465833,276.443071l164.08,0c6.005,0 9.616,-4.699 8.044,-10.508l-26.069,-96.837c-1.566,-5.803 -4.15,-9.388 -5.776,-8.012s-4.569,7.082 -6.57,12.749l-21.299,60.183c-2.002,5.668 -6.451,6.288 -9.932,1.392l-18.667,-26.254c-3.486,-4.895 -9.23,-4.971 -12.842,-0.169l-20.01,26.597c-3.612,4.803 -10.155,5.434 -14.62,1.414l-6.494,-5.852c-4.465,-4.019 -10.655,-3.144 -13.821,1.958l-21.163,34.098c-3.166,5.102 -0.871,9.241 5.139,9.241z"/>
  <circle id="svg_4" fill="#aaaaaa" r="15.409" cy="182.699667" cx="247.767401"/>
 </g>
</svg>