<svg width="511.999" height="511.999" xmlns="http://www.w3.org/2000/svg">

 <g>
  <title>background</title>
  <rect fill="none" id="canvas_background" height="402" width="582" y="-1" x="-1"/>
 </g>
 <g>
  <title>Layer 1</title>
  <path fill="#ffffff" id="svg_3" d="m491.846,454.645l-13.902,0c5.069,8.39 7.549,18.357 6.575,28.81l7.327,0c7.955,0 14.405,-6.449 14.405,-14.405c0.001,-7.955 -6.449,-14.405 -14.405,-14.405z"/>
  <path fill="#ffffff" id="svg_6" d="m396.899,454.645l-45.719,0c5.069,8.388 7.549,18.357 6.575,28.81l32.567,0c-0.973,-10.45 1.507,-20.419 6.577,-28.81z"/>
  <path fill="#ffffff" id="svg_9" d="m277.307,240.106c0,-7.956 -6.449,-14.405 -14.405,-14.405l-21.88,0c1.83,6.433 2.064,13.408 0.331,20.35c-0.744,2.978 -1.824,5.808 -3.184,8.46l10.327,0l0,214.539c0,7.956 6.449,14.405 14.405,14.405l0.656,0c-1.339,-14.389 3.873,-28.116 13.749,-37.941l0,-205.408l0.001,0z"/>
  <path fill="#ffffff" id="svg_12" d="m452.402,402.239l-126.764,0c-5.729,0 -10.372,4.643 -10.372,10.372s4.643,10.372 10.372,10.372l126.764,0c5.729,0 10.372,-4.643 10.372,-10.372s-4.643,-10.372 -10.372,-10.372z"/>
  <path fill="#ffffff" id="svg_15" d="m452.402,369.972l-126.764,0c-5.729,0 -10.372,4.643 -10.372,10.372c0,5.729 4.643,10.372 10.372,10.372l126.764,0c5.729,0 10.372,-4.643 10.372,-10.372c0,-5.729 -4.643,-10.372 -10.372,-10.372z"/>
  <path fill="#ffffff" id="svg_18" d="m452.402,337.704l-126.764,0c-5.729,0 -10.372,4.643 -10.372,10.372c0,5.729 4.643,10.372 10.372,10.372l126.764,0c5.729,0 10.372,-4.643 10.372,-10.372c0,-5.728 -4.643,-10.372 -10.372,-10.372z"/>
  <path fill="#ffffff" id="svg_21" d="m452.402,305.437l-126.764,0c-5.729,0 -10.372,4.643 -10.372,10.372c0,5.729 4.643,10.372 10.372,10.372l126.764,0c5.729,0 10.372,-4.643 10.372,-10.372c0,-5.729 -4.643,-10.372 -10.372,-10.372z"/>
  <path fill="#ffffff" id="svg_24" d="m452.402,273.17l-126.764,0c-5.729,0 -10.372,4.643 -10.372,10.372s4.643,10.372 10.372,10.372l126.764,0c5.729,0 10.372,-4.643 10.372,-10.372s-4.643,-10.372 -10.372,-10.372z"/>
  <circle fill="#ffffff" id="svg_27" r="44.591" cy="44.591" cx="115.491"/>
  <path fill="#ffffff" id="svg_30" d="m207.827,216.861c-7.187,-1.794 -60.616,-15.128 -67.803,-16.923l-25.764,-72.388l38.745,55.639l3.774,-43.899c1.425,-16.576 -10.857,-31.168 -27.431,-32.592l-53.52,-4.601c-16.575,-1.425 -31.167,10.857 -32.592,27.431l-11.86,154.099c0.037,0.314 14.573,93.131 14.573,93.131l-38.635,102.436c-4.725,12.527 1.6,26.514 14.128,31.239c12.529,4.724 26.514,-1.602 31.239,-14.128l40.895,-108.425c1.481,-3.925 1.917,-8.17 1.266,-12.315c-1.248,-7.947 -12.154,-77.409 -13.763,-87.662l12.788,1.099l38.682,85.594l26.948,118.528c2.968,13.053 15.956,21.233 29.015,18.266c13.055,-2.969 21.232,-15.958 18.266,-29.015l-27.49,-120.911c-0.361,-1.584 -0.879,-3.128 -1.549,-4.609l-33.323,-73.736l1.721,-20.019l-31.104,-7.763c-17.443,-4.354 -27.612,-19.588 -28.719,-29.491l-9.175,-82.09l28.449,79.935c2.207,6.2 7.397,11.145 14.142,12.828l78.312,19.544c10.054,2.512 20.36,-2.999 23.873,-12.716c4.098,-11.332 -2.485,-23.59 -14.088,-26.486z"/>
  <path fill="#ffffff" id="svg_33" d="m330.381,453.446c-5.463,-4.22 -12.303,-6.74 -19.724,-6.74c-17.816,0 -32.331,14.52 -32.331,32.331c0,17.96 14.659,32.33 32.331,32.33c17.822,0 32.33,-14.515 32.33,-32.331c0,-10.404 -4.947,-19.672 -12.606,-25.59zm-19.724,37.821c-6.743,0 -12.229,-5.487 -12.229,-12.229c0,-6.743 5.487,-12.229 12.229,-12.229c6.743,0 12.229,5.486 12.229,12.229c0,6.742 -5.486,12.229 -12.229,12.229z"/>
  <path fill="#ffffff" id="svg_36" d="m437.421,446.707c-17.816,0 -32.331,14.52 -32.331,32.331c0,17.96 14.659,32.33 32.331,32.33c17.759,0 32.33,-14.443 32.33,-32.331c0.001,-17.847 -14.55,-32.33 -32.33,-32.33zm0,44.56c-6.743,0 -12.229,-5.487 -12.229,-12.229c0,-6.743 5.487,-12.229 12.229,-12.229c6.743,0 12.229,5.486 12.229,12.229c0,6.742 -5.485,12.229 -12.229,12.229z"/>
 </g>
</svg>