<svg width="158" height="151" viewBox="0 0 158 151" fill="none" xmlns="http://www.w3.org/2000/svg">
<path d="M125.329 90.4653C127.15 85.822 128.063 80.7751 128.063 75.3246C128.063 70.7831 127.403 66.3679 126.09 62.0756C124.774 57.7868 122.904 53.7998 120.475 50.1146C118.046 46.4295 115.137 43.1514 111.75 40.2735C108.36 37.3956 104.59 35.0476 100.442 33.2296C97.7077 32.1205 95.0018 31.3133 92.3204 30.8079C89.639 30.306 86.9822 29.9515 84.3534 29.748C81.7212 29.5479 79.0924 29.4953 76.4602 29.5971C73.8279 29.6988 71.1992 29.748 68.5669 29.748L66.97 0H82.6793C92.9977 0 102.688 1.97244 111.743 5.91731C120.798 9.86218 128.716 15.253 135.496 22.0793C142.274 28.9092 147.612 36.8796 151.507 45.9837C155.403 55.0913 157.351 64.8552 157.351 75.2755C157.351 85.6957 155.403 95.4877 151.507 104.644C147.612 113.805 142.298 121.793 135.574 128.626C128.842 135.456 120.928 140.843 111.82 144.788C102.713 148.733 93.0012 150.705 82.6793 150.705C71.4483 150.705 60.8737 148.578 50.9589 144.332C41.0441 140.082 32.3436 134.266 24.8539 126.878C17.3643 119.494 11.4224 110.842 7.02129 100.928C2.62016 91.0128 0.317819 81.6631 0.114258 70.3303H29.406C29.606 77.6164 31.1257 83.1196 33.958 89.3949C36.7903 95.6702 40.6089 101.156 45.4171 105.862C50.2218 110.565 55.8128 114.261 62.1863 116.942C68.5599 119.624 75.3897 120.964 82.6758 120.964C82.746 120.964 82.8197 120.964 82.8899 120.964C93.5558 120.915 103.744 116.619 111.543 109.347C116.832 104.413 123.156 97.4039 125.322 90.4653H125.329ZM80.9104 94.3189L0.731958 26.4033L18.4102 3.35174L99.3713 72.036L80.9104 94.3189Z" fill="url(#paint0_linear_1640_2829)"/>
<path opacity="0.32" d="M18.4103 3.35174L92.7697 66.3956L124.264 93.3225L125.325 90.4653C127.147 85.822 128.059 80.7751 128.059 75.3246C128.059 70.7831 127.4 66.3679 126.087 62.0756C124.771 57.7868 122.9 53.7998 120.472 50.1146C118.043 46.4295 115.133 43.1514 111.746 40.2735C108.356 37.3956 104.587 35.0476 100.438 33.2296C97.7043 32.1205 94.9983 31.3133 92.3169 30.8079C89.6356 30.306 86.9787 29.9515 84.35 29.748C81.7177 29.5479 79.089 29.4953 76.4567 29.5971C73.8245 29.6988 71.1957 29.748 68.5635 29.748L66.9666 0H82.6759C92.9943 0 102.685 1.97244 111.739 5.91731C120.794 9.86218 128.712 15.253 135.493 22.0793C142.27 28.9092 147.608 36.8796 151.504 45.9837C155.4 55.0913 157.348 64.8552 157.348 75.2755C157.348 85.6957 155.4 95.4877 151.504 104.644C147.608 113.805 142.295 121.793 135.57 128.626C128.839 135.456 120.924 140.843 111.817 144.788C102.709 148.733 92.9978 150.705 82.6759 150.705C71.4449 150.705 60.8703 148.578 50.9555 144.332C41.0406 140.082 32.3402 134.266 24.8505 126.878C17.3609 119.494 11.419 110.842 7.01788 100.928C2.61675 91.0128 0.314401 81.6631 0.11084 70.3303H29.4026C29.6026 77.6164 31.1223 83.1196 33.9546 89.3949C36.7869 95.6702 40.6054 101.156 45.4137 105.862C50.2184 110.565 55.8093 114.261 62.1829 116.942C68.5565 119.624 75.3863 120.964 82.6724 120.964C89.9584 120.964 96.7848 119.346 103.464 116.107L105.436 115.044L75.5899 89.7774L0.732051 26.4033L18.4103 3.35174Z" fill="url(#paint1_linear_1640_2829)"/>
<defs>
<linearGradient id="paint0_linear_1640_2829" x1="17.548" y1="13.7967" x2="163.129" y2="142.542" gradientUnits="userSpaceOnUse">
<stop stop-color="#02162E"/>
<stop offset="1" stop-color="#0060D4"/>
</linearGradient>
<linearGradient id="paint1_linear_1640_2829" x1="41.1341" y1="30.3772" x2="162.273" y2="143.912" gradientUnits="userSpaceOnUse">
<stop stop-color="#02162E"/>
<stop offset="1" stop-color="#0060D4"/>
</linearGradient>
</defs>
</svg>
