<?xml version="1.0" encoding="UTF-8"?>
<svg width="24px" height="24px" viewBox="0 0 24 24" version="1.1" xmlns="http://www.w3.org/2000/svg" xmlns:xlink="http://www.w3.org/1999/xlink">
    <!-- Generator: Sketch 63.1 (92452) - https://sketch.com -->
    <title>logout</title>
    <desc>Created with Sketch.</desc>
    <g id="Page-1" stroke="none" stroke-width="1" fill="none" fill-rule="evenodd">
        <g id="Artboard" transform="translate(-1167.000000, -124.000000)" fill="#704EF2" fill-rule="nonzero">
            <g id="Group-3" transform="translate(1151.000000, 65.000000)">
                <g id="logout" transform="translate(16.000000, 59.000000)">
                    <path d="M13.2242325,1.59872116e-15 C14.7383041,1.59872116e-15 15.96875,1.23062865 15.96875,2.74470028 L15.96875,7.23592835 C15.96875,7.64912278 15.6334064,7.98446636 15.220212,7.98446636 C14.8070175,7.98446636 14.471674,7.64912278 14.471674,7.23592835 L14.471674,2.74470028 C14.471674,2.05701752 13.9119152,1.497076 13.2242325,1.497076 L6.832,1.497 L8.62116229,2.09393275 C9.43859649,2.37938599 9.98044589,3.14089911 9.98044589,3.99214182 L9.98,19.461 L13.2242325,19.4619883 C13.9119152,19.4619883 14.471674,18.9020468 14.471674,18.214364 L14.471674,13.723136 C14.471674,13.3099415 14.8070175,12.974598 15.220212,12.974598 C15.6334064,12.974598 15.96875,13.3099415 15.96875,13.723136 L15.96875,18.214364 C15.96875,19.7284357 14.7383041,20.9590643 13.2242325,20.9590643 L9.98,20.959 L9.98044589,21.9570541 C9.98044589,23.0579313 9.08534358,23.9532164 7.98446639,23.9532164 C7.77083331,23.9532164 7.56816519,23.9232456 7.36567981,23.8603801 L1.35928365,21.8592836 C0.542032187,21.5738304 -7.76267939e-14,20.8123173 -7.76267939e-14,19.9610745 L-7.76267939e-14,1.99616227 C-7.76267939e-14,0.895285076 0.895285099,-2.84217094e-15 1.99616229,-2.84217094e-15 L13.2242325,1.59872116e-15 Z M1.99616229,1.497076 C1.72167396,1.497076 1.49707602,1.72167399 1.49707602,1.99616227 L1.49707602,19.9610745 C1.49707602,20.1736111 1.63980262,20.3711623 1.84338451,20.4420687 L7.82163743,22.4342105 C7.86458335,22.4480994 7.92050437,22.4561403 7.98446639,22.4561403 C8.25895467,22.4561403 8.48336987,22.2315424 8.48336987,21.9570541 L8.48336987,3.99214182 C8.48336987,3.77960526 8.34064327,3.58205411 8.13706143,3.51114767 L2.15880847,1.51900582 C2.11586255,1.50511698 2.05994152,1.497076 1.99616229,1.497076 Z M19.9919591,6.20595759 L23.7346491,9.94864765 C23.8254477,10.0394462 23.8880505,10.1477614 23.9224575,10.2627143 C23.9244271,10.2730974 23.9272296,10.2831392 23.9298254,10.2932636 C23.9367956,10.3164487 23.9416307,10.3402876 23.9452989,10.3642705 C23.9456049,10.3721264 23.9467593,10.3804804 23.9477744,10.3888772 C23.9517147,10.4147545 23.9534243,10.4401827 23.9538446,10.4656283 C23.9531716,10.4699968 23.9532164,10.4747593 23.9532164,10.4795321 L23.9537683,10.494493 C23.953272,10.5172568 23.9517435,10.5400024 23.949183,10.5626534 L23.9532164,10.4795321 C23.9532164,10.5224845 23.9495927,10.5645956 23.9426345,10.6055762 C23.9401186,10.62271 23.9366504,10.6394144 23.9326078,10.6560076 C23.9281258,10.6731403 23.923325,10.6902659 23.9179422,10.7071325 C23.9132154,10.7227605 23.9075161,10.7387066 23.9012596,10.7544832 C23.8953967,10.7687233 23.8896258,10.7821061 23.8834826,10.7952808 C23.8750518,10.8137182 23.8653554,10.8324078 23.8548192,10.8507466 C23.8479161,10.8626615 23.8406426,10.8745846 23.8330513,10.8862828 C23.8234774,10.9009868 23.8132511,10.9155321 23.802447,10.9297791 C23.783233,10.9554036 23.7625489,10.9794609 23.7404405,11.0021224 C23.7384342,11.0036877 23.7365478,11.005594 23.7346491,11.0074927 L19.9919591,14.7501828 C19.845212,14.8978436 19.6536915,14.9707602 19.4619883,14.9707602 C19.2702851,14.9707602 19.0787646,14.8978436 18.9329313,14.7512792 C18.6405336,14.4586988 18.6405336,13.9846491 18.9329313,13.6922515 L21.396,11.228 L13.723136,11.2280702 C13.3099415,11.2280702 12.9745979,10.8927266 12.9745979,10.4795321 C12.9745979,10.0663377 13.3099415,9.73099413 13.723136,9.73099413 L21.398,9.73 L18.9329313,7.26480264 C18.6405336,6.97240498 18.6405336,6.49835525 18.9329313,6.20595759 C19.2255117,5.91337719 19.6995614,5.91337719 19.9919591,6.20595759 Z" id="Combined-Shape"></path>
                </g>
            </g>
        </g>
    </g>
</svg>