<svg width="512" height="512" xmlns="http://www.w3.org/2000/svg">

 <g>
  <title>background</title>
  <rect fill="none" id="canvas_background" height="402" width="582" y="-1" x="-1"/>
 </g>
 <g>
  <title>Layer 1</title>
  <g id="svg_1">
   <circle fill="#ff7f00" id="svg_2" r="48" cy="432" cx="144"/>
   <circle fill="#ff7f00" id="svg_3" r="48" cy="432" cx="384"/>
   <path fill="#ff7b00" id="svg_5" d="m507.438,255.539l-48,-80c-5.782,-9.641 -16.196,-15.539 -27.438,-15.539l-112,0l0,-32c0,-17.672 -14.328,-32 -32,-32l-0.304,0c-29.224,-38.775 -75.51,-64 -127.696,-64s-98.472,25.225 -127.696,64l-0.304,0c-17.672,0 -32,14.328 -32,32l0,288c0,17.672 14.328,32 32,32l33.612,0c-1.049,-5.172 -1.612,-10.52 -1.612,-16c0,-44.184 35.817,-80 80,-80s80,35.816 80,80c0,5.48 -0.563,10.828 -1.612,16l65.612,0l16,0l0,-16c0,-44.184 35.817,-80 80,-80s80,35.816 80,80l0,16l16,0c17.672,0 32,-14.328 32,-32l0,-144c0,-5.797 -1.578,-11.492 -4.562,-16.461zm-347.438,-159.539c52.938,0 96,43.063 96,96s-43.063,96 -96,96s-96,-43.063 -96,-96s43.063,-96 96,-96zm288,192l-96,0l0,-16l0,-64l64,0l32,64l0,16z"/>
  </g>
 </g>
</svg>