<svg width="45" height="45" viewBox="0 0 45 45" fill="none" xmlns="http://www.w3.org/2000/svg">
<circle cx="22.5" cy="22.5" r="21.5" stroke="#02162E" stroke-width="2"/>
<path d="M22 15.4999C23.9884 15.5022 25.8948 16.2931 27.3008 17.6992C28.7068 19.1052 29.4977 21.0115 29.5 22.9999C29.5 23.1989 29.579 23.3896 29.7197 23.5303C29.8603 23.6709 30.0511 23.7499 30.25 23.7499C30.4489 23.7499 30.6397 23.6709 30.7803 23.5303C30.921 23.3896 31 23.1989 31 22.9999C31.0007 21.1212 30.4131 19.2893 29.3198 17.7614C28.2265 16.2335 26.6823 15.0862 24.9039 14.4805C23.1254 13.8748 21.2019 13.8411 19.4033 14.384C17.6047 14.927 16.0212 16.0194 14.875 17.5081V16.1116C14.875 15.9127 14.796 15.7219 14.6553 15.5812C14.5147 15.4406 14.3239 15.3616 14.125 15.3616C13.9261 15.3616 13.7353 15.4406 13.5947 15.5812C13.454 15.7219 13.375 15.9127 13.375 16.1116V19.5875C13.375 19.7864 13.454 19.9771 13.5947 20.1178C13.7353 20.2584 13.9261 20.3374 14.125 20.3374H17.5986C17.7975 20.3374 17.9883 20.2584 18.129 20.1178C18.2696 19.9771 18.3486 19.7864 18.3486 19.5875C18.3486 19.3885 18.2696 19.1978 18.129 19.0571C17.9883 18.9165 17.7975 18.8375 17.5986 18.8375H15.7675C16.4524 17.8121 17.3793 16.9713 18.4663 16.3892C19.5533 15.8071 20.767 15.5017 22 15.4999ZM22 32C23.3767 31.9981 24.7346 31.6809 25.9697 31.0728C27.2047 30.4647 28.2841 29.5818 29.125 28.4918V29.8883C29.125 30.0872 29.204 30.278 29.3447 30.4187C29.4853 30.5593 29.6761 30.6383 29.875 30.6383C30.0739 30.6383 30.2647 30.5593 30.4053 30.4187C30.546 30.278 30.625 30.0872 30.625 29.8883V26.4143C30.625 26.2154 30.546 26.0246 30.4053 25.884C30.2647 25.7433 30.0739 25.6643 29.875 25.6643H26.4014C26.2025 25.6643 26.0117 25.7433 25.871 25.884C25.7304 26.0246 25.6514 26.2154 25.6514 26.4143C25.6514 26.6132 25.7304 26.804 25.871 26.9447C26.0117 27.0853 26.2025 27.1643 26.4014 27.1643H28.2325C27.3394 28.5027 26.0395 29.5183 24.5247 30.0609C23.01 30.6035 21.3609 30.6444 19.8211 30.1774C18.2814 29.7105 16.9327 28.7606 15.9744 27.468C15.0162 26.1755 14.4993 24.6089 14.5 22.9999C14.5 22.801 14.421 22.6103 14.2803 22.4696C14.1397 22.329 13.9489 22.2499 13.75 22.2499C13.5511 22.2499 13.3603 22.329 13.2197 22.4696C13.079 22.6103 13 22.801 13 22.9999C13.0027 25.3861 13.9518 27.6737 15.639 29.361C17.3262 31.0482 19.6139 31.9973 22 32Z" fill="#02162E"/>
</svg>
