<svg width="30" height="30" viewBox="0 0 30 30" fill="none" xmlns="http://www.w3.org/2000/svg">
<path d="M24.3748 6.79675C24.2471 6.66891 24.0837 6.60511 23.885 6.60511H20.2417C20.0001 5.42652 19.5455 4.40345 18.878 3.53703H23.8422C24.0414 3.53703 24.2043 3.47315 24.3325 3.34561C24.4596 3.21785 24.5235 3.05434 24.5235 2.85554V0.681794C24.5235 0.482838 24.4597 0.319628 24.3325 0.191717C24.2042 0.0641048 24.0412 0 23.842 0H6.11507C5.91611 0 5.7529 0.0641048 5.62499 0.191643C5.49745 0.319554 5.43335 0.482764 5.43335 0.68172V3.51547C5.43335 3.70009 5.50081 3.85987 5.63574 3.9948C5.77066 4.12972 5.93044 4.19719 6.11507 4.19719H9.20456C12.2015 4.19719 14.105 4.9995 14.9145 6.60473H6.11507C5.91611 6.60473 5.75268 6.66854 5.62499 6.79638C5.49745 6.92436 5.43335 7.0875 5.43335 7.28645V9.4599C5.43335 9.6587 5.49716 9.82214 5.62499 9.94968C5.7529 10.0777 5.91641 10.1413 6.11507 10.1413H15.2132C14.9007 11.3064 14.1726 12.194 13.0291 12.8048C11.8854 13.4157 10.3765 13.7212 8.50142 13.7212H6.11507C5.93044 13.7212 5.77066 13.7887 5.63574 13.9236C5.50074 14.0586 5.43335 14.2184 5.43335 14.4029V17.1091C5.43335 17.294 5.49716 17.4502 5.62499 17.5779C8.3521 20.4755 11.8891 24.5306 16.2356 29.744C16.3636 29.9146 16.5411 29.9997 16.7684 29.9997H20.9231C21.2216 29.9997 21.4278 29.8722 21.541 29.616C21.6831 29.3604 21.6552 29.1189 21.4557 28.8916C17.3086 23.8062 14.0484 19.9995 11.6762 17.4712C14.091 17.1872 16.0512 16.4058 17.557 15.1276C19.0625 13.8493 19.9786 12.1871 20.3055 10.1417H23.885C24.0837 10.1417 24.2472 10.078 24.3748 9.95005C24.5028 9.82251 24.5668 9.65908 24.5668 9.46027V7.28705C24.5668 7.08787 24.5028 6.92466 24.3748 6.79675Z" fill="white"/>
</svg>
