<svg width="45" height="45" viewBox="0 0 45 45" fill="none" xmlns="http://www.w3.org/2000/svg">
<circle cx="22.5" cy="22.5" r="22.5" fill="#02162E"/>
<g clip-path="url(#clip0_11_303)">
<path d="M20.6592 30.3102C22.8044 30.3103 24.8882 29.5945 26.5806 28.2764L32.9653 34.6611C33.4423 35.1218 34.2023 35.1086 34.663 34.6316C35.1123 34.1663 35.1123 33.4287 34.663 32.9635L28.2782 26.5788C31.5491 22.3682 30.7874 16.3033 26.5769 13.0324C22.3663 9.7615 16.3015 10.5232 13.0306 14.7337C9.75967 18.9443 10.5214 25.0092 14.7319 28.2801C16.427 29.5969 18.5127 30.3113 20.6592 30.3102ZM15.5291 15.5273C18.3625 12.6939 22.9561 12.6939 25.7895 15.5272C28.6229 18.3605 28.6229 22.9542 25.7896 25.7875C22.9563 28.6209 18.3626 28.6209 15.5292 25.7876L15.5291 25.7875C12.6958 22.9749 12.6791 18.3979 15.4918 15.5646L15.5291 15.5273Z" fill="white"/>
</g>
<defs>
<clipPath id="clip0_11_303">
<rect width="24" height="24" fill="white" transform="translate(11 11)"/>
</clipPath>
</defs>
</svg>
