<svg width="239" height="40" viewBox="0 0 239 40" fill="none" xmlns="http://www.w3.org/2000/svg">
<path d="M35.8776 9.55411C34.4102 7.14903 32.3177 5.26248 29.6001 3.8871C27.195 2.69927 24.2898 1.87184 20.8881 1.4048C18.3286 1.06279 15.0483 0.889951 11.0509 0.889951C10.7383 0.889951 9.1165 0.923049 6.17819 0.981888C3.24356 1.04441 1.18049 1.0775 -0.00366211 1.0775V36.955C0.463378 37.7347 0.956161 38.2679 1.47101 38.5474C1.98586 38.8306 2.58529 38.9703 3.27298 38.9703C3.36491 38.9703 3.80253 38.9299 4.58216 38.8526C5.36179 38.7754 6.02006 38.7349 6.54962 38.7349C8.29642 38.7349 9.9991 37.9553 11.654 36.3924C12.1541 35.9253 13.261 34.5831 14.9784 32.3655C15.0703 32.6487 15.1182 32.9576 15.1182 33.3033C15.1182 33.5828 15.0703 34.0829 14.9784 34.8037C14.8865 35.5208 14.8387 36.0541 14.8387 36.3961C14.8387 37.2382 15.0556 37.8487 15.4933 38.2238C15.7727 38.4738 16.2104 38.6467 16.8061 38.7386C20.833 38.7386 24.2824 38.1134 27.1582 36.8668C30.2804 35.5245 32.84 33.4173 34.8405 30.5452C35.9033 28.7028 36.705 26.8199 37.2529 24.9002C37.7972 22.9806 38.073 20.9433 38.073 18.7883C38.073 17.1665 37.8928 15.5815 37.5361 14.0333C37.1757 12.4887 36.6241 10.9957 35.8739 9.56146L35.8776 9.55411ZM20.855 23.0762C20.3402 24.7936 19.5201 26.2131 18.3948 27.3384C17.9278 27.9636 17.3798 28.2762 16.7546 28.2762C16.1295 28.2762 15.8169 27.9636 15.8169 27.3384V7.57194C17.0341 7.57194 18.141 8.03898 19.1413 8.97674C19.9835 9.78946 20.5939 10.7714 20.969 11.9261C21.4067 13.7685 21.6236 15.6587 21.6236 17.5931C21.6236 19.5274 21.3662 21.3552 20.8514 23.0725L20.855 23.0762Z" fill="#02162E"/>
<path d="M78.9078 25.1945C77.1904 20.0717 75.8003 16.0596 74.7412 13.1544C73.1158 8.68622 71.4756 4.64099 69.8244 1.01866H51.0876C49.3997 3.64439 47.7154 6.26643 46.0274 8.88848C44.2181 11.8231 42.6846 14.5886 41.4379 17.1812C39.9706 20.2446 38.9225 23.1461 38.301 25.8968C38.176 26.3639 38.1135 26.7022 38.1135 26.9045V27.6326C38.1135 29.0999 38.4555 30.5746 39.1432 32.0603C39.8309 33.546 40.7576 34.8331 41.9307 35.9254C43.1001 37.0176 44.6226 37.7862 46.4981 38.2201C47.9324 38.5621 49.7785 38.7349 52.0254 38.7349C52.2129 38.7349 53.8678 38.6577 56.99 38.4996C57.6152 38.4702 58.4904 38.4518 59.612 38.4518L60.3623 26.6471L64.9996 38.4518L83.501 38.4996L83.1737 37.4221C82.2065 34.8295 80.7833 30.7548 78.9115 25.1945H78.9078ZM58.7662 23.1865C57.2658 23.1865 55.7544 22.4841 54.2245 21.0793C53.1323 20.0791 52.1026 18.7846 51.1318 17.1922C50.6647 16.0375 50.3117 14.8754 50.0763 13.7023C49.841 12.5292 49.727 11.2568 49.727 9.88508C49.727 9.00984 49.7821 8.2155 49.8925 7.49471C50.0028 6.7776 50.1646 6.0752 50.3852 5.38752L51.4627 2.25062C51.9923 3.34283 52.8381 5.4059 53.9929 8.43247C55.2726 11.7422 56.3501 14.6143 57.2254 17.0525C57.9425 19.0825 58.678 21.1124 59.4282 23.1424C59.27 23.1718 59.0531 23.1902 58.7736 23.1902L58.7662 23.1865Z" fill="#02162E"/>
<path d="M164.505 22.1532C163.38 22.3113 160.941 22.3885 159.879 22.3885C158.257 22.3885 156.687 22.2083 155.171 21.8479C153.656 21.4912 152.274 20.9212 151.027 20.1379C151.494 20.046 153.182 19.9025 156.087 19.715C158.992 19.5274 161.022 19.1045 162.177 18.4499C163.799 17.8248 165.152 16.6847 166.23 15.0299C167.307 13.375 167.844 11.7054 167.844 10.0175C167.844 8.58325 167.447 7.17845 166.649 5.80307C165.855 4.43137 164.704 3.32077 163.207 2.47862C161.927 1.76151 159.919 1.27609 157.187 1.02602C154.454 0.775949 150.917 0.650915 146.577 0.650915C143.547 0.650915 139.737 0.728142 135.148 0.886274C130.558 1.04441 127.903 1.12163 127.186 1.12163V38.29L126.921 37.4221C125.954 34.8295 124.531 30.7548 122.659 25.1944C120.941 20.0717 119.551 16.0596 118.489 13.1544C116.863 8.68622 115.223 4.64099 113.572 1.01866H94.835C93.147 3.64439 91.4627 6.26643 89.7748 8.88848C87.9654 11.8231 86.4319 14.5886 85.1853 17.1812C83.7179 20.2446 82.6699 23.1461 82.0484 25.8968C81.9233 26.3639 81.8608 26.7022 81.8608 26.9045V27.6326C81.8608 29.0999 82.2028 30.5746 82.8905 32.0603C83.5782 33.546 84.5049 34.8331 85.678 35.9253C86.8475 37.0176 88.37 37.7862 90.2455 38.2201C91.6797 38.5621 93.5258 38.7349 95.7727 38.7349C95.9603 38.7349 97.6152 38.6577 100.737 38.4996C101.363 38.4702 102.238 38.4518 103.359 38.4518L104.11 26.6471L108.747 38.4518L127.248 38.4996H142.922V19.9504C143.047 19.8878 143.139 19.8584 143.201 19.8584C143.576 19.7628 143.981 19.7187 144.419 19.7187C144.635 19.7187 144.83 19.7334 145.003 19.7665C145.176 19.7996 145.338 19.8621 145.496 19.954C147.18 21.2963 148.081 24.1096 148.206 28.3865C148.331 32.6671 149.284 35.5392 151.06 37.0065C153.524 38.6614 156.216 39.4888 159.147 39.4888C159.147 39.4888 164.56 39.2939 166.406 38.2936C167.351 37.7825 167.785 36.944 167.877 36.0688L167.598 21.5501C166.66 21.8001 165.63 22.0024 164.505 22.1605V22.1532ZM102.517 23.1865C101.017 23.1865 99.5054 22.4841 97.9756 21.0793C96.8834 20.0791 95.8536 18.7846 94.8865 17.1922C94.4157 16.0375 94.0664 14.8754 93.831 13.7023C93.5957 12.5292 93.478 11.2568 93.478 9.88508C93.478 9.00984 93.5332 8.2155 93.6435 7.49471C93.7538 6.7776 93.9156 6.0752 94.1363 5.38751L95.2138 2.25062C95.7433 3.34283 96.5892 5.4059 97.7439 8.43247C99.0236 11.7422 100.101 14.6143 100.976 17.0525C101.693 19.0825 102.429 21.1124 103.179 23.1424C103.021 23.1718 102.804 23.1902 102.525 23.1902L102.517 23.1865ZM148.331 13.6288C148.067 14.504 147.636 15.3939 147.044 16.2986C146.765 16.7987 146.265 17.2033 145.544 17.5159C144.827 17.8284 144.168 17.9829 143.576 17.9829C143.297 17.9829 143.106 17.9682 143.014 17.9351C142.951 17.343 142.922 16.2251 142.922 14.5849V2.4823C143.907 2.35727 144.959 2.71766 146.088 3.5598C147.213 4.40195 147.905 5.27719 148.159 6.18185C148.287 6.83644 148.412 7.55723 148.541 8.33686C148.666 9.11648 148.732 9.89979 148.732 10.6794C148.732 11.7716 148.6 12.7572 148.335 13.6288H148.331Z" fill="#02162E"/>
<path d="M188.346 21.2632C187.129 21.2632 185.996 21.4508 184.952 21.8259C183.904 22.201 182.977 22.8261 182.164 23.6977C180.384 25.6357 179.494 27.6951 179.494 29.8796C179.494 30.7217 179.634 31.5675 179.917 32.4097C180.322 33.6269 181.12 34.6272 182.308 35.4068C183.087 35.907 184.213 36.4071 185.68 36.9072C184.963 37.0948 184.213 37.1867 183.433 37.1867C180.965 37.1867 178.843 36.4696 177.064 35.0317C176.284 34.344 175.736 33.6122 175.423 32.8289C175.111 32.0493 174.956 31.0968 174.956 29.9715C174.956 29.817 174.964 29.567 174.978 29.2213C174.993 28.8793 175.019 28.552 175.048 28.2394C175.265 26.5845 176.482 25.1944 178.7 24.0691C181.447 22.6974 183.179 21.4912 183.9 20.4615C184.338 20.0239 184.624 18.9243 184.768 17.1591C184.908 15.3976 184.977 13.1066 184.977 10.297C184.977 8.98777 184.955 7.40278 184.908 5.54197C184.86 3.68484 184.805 2.17707 184.742 1.02234H169.425V38.4003H193.594V21.9583C192.502 21.7413 191.534 21.5684 190.689 21.4434C189.846 21.3184 189.063 21.2559 188.346 21.2559V21.2632Z" fill="#02162E"/>
<path d="M237.389 11.9665C236.547 9.57617 235.33 7.55723 233.737 5.90236C231.678 3.96801 229.232 2.50069 226.408 1.50041C223.584 0.500138 220.609 0 217.486 0C214.364 0 211.492 0.507493 208.679 1.52616C205.869 2.54114 203.479 4.00846 201.511 5.91707C199.544 7.60872 198.084 9.72695 197.132 12.2791C196.179 14.8313 195.705 17.4681 195.705 20.1894C195.705 22.1311 195.94 23.9 196.407 25.496C197.437 29.4714 199.809 32.8804 203.527 35.7304C207.241 38.5768 211.301 40.0037 215.703 40.0037H217.858C221.855 40.0037 225.507 39.0255 228.817 37.0764C232.127 35.1237 234.767 32.4317 236.731 28.997C238.01 25.9704 238.65 22.7673 238.65 19.3951C238.65 16.8355 238.227 14.3606 237.385 11.9702L237.389 11.9665ZM219.263 22.9512C218.483 23.7308 217.608 24.1206 216.641 24.1206C215.924 24.1206 215.125 23.8853 214.25 23.4182C213.596 23.0762 212.875 22.6055 212.095 22.0134C210.532 20.7337 209.363 19.1707 208.583 17.3283C207.804 15.4859 207.414 13.489 207.414 11.334C207.414 10.5654 207.462 9.79314 207.561 9.01719C207.778 7.30716 208.451 5.68539 209.554 4.3615C209.679 4.21072 209.793 4.08201 209.896 3.98272C210.709 3.16999 211.753 2.53011 213.033 2.06307C213.062 3.84297 213.096 5.83985 213.125 8.05737C213.154 10.2749 213.173 12.805 213.173 15.644C213.173 17.799 213.14 19.031 213.081 19.3436C214.081 17.6556 215.188 16.8135 216.405 16.8135C217.406 16.8135 218.248 17.0966 218.935 17.6556C219.811 18.3764 220.248 19.3105 220.248 20.4652C220.248 21.4655 219.921 22.2929 219.266 22.9475L219.263 22.9512Z" fill="#02162E"/>
</svg>
