<svg width="1679" height="438" viewBox="0 0 1679 438" fill="none" xmlns="http://www.w3.org/2000/svg">
<path d="M363.8 0H73.97C33.1175 0 0 33.1175 0 73.97V363.8C0 404.652 33.1175 437.77 73.97 437.77H363.8C404.652 437.77 437.77 404.652 437.77 363.8V73.97C437.77 33.1175 404.652 0 363.8 0Z" fill="#F42434"/>
<path fill-rule="evenodd" clip-rule="evenodd" d="M127.41 139.73L116.14 114.13C107.54 93.8701 106.55 87.1101 80.14 87.4501L71.9399 87.5901C60.7799 87.5901 54.97 94.4201 54.97 102.75C54.97 109.66 62.4299 116.81 74.1899 116.81H80.3C85.2 116.81 89.5099 120.06 90.8499 124.77L147.52 270.07C153.4 290.68 160.79 297.3 171.31 297.3H286.49C314.3 297.3 319 280.53 329.42 253.52C339.63 225.92 335.25 238.98 344.64 206.89C347.2 190.09 359.1 168.21 345.3 152.04C334.22 139.15 331.03 140.15 286.99 139.8" fill="white"/>
<path d="M269.42 158.21C276.92 158.21 280.78 161.64 280.78 168.72C280.78 175.8 275.42 178.37 269.63 178.37H179.43C161.59 178.45 164.06 188.67 169 201.96L174.54 214.93H237.3C243.52 214.93 247.59 218.79 247.59 225.01C247.59 231.23 243.52 235.3 237.3 235.3H182.42L193.87 263.71C194.65 264.7 196.96 274.42 187.28 276.93C181.88 278.33 176.56 275.16 174.35 269.47L145.31 192.09C136.81 158.01 162.89 158.21 186.26 158.21H269.42Z" fill="#F42434"/>
<path d="M192.57 350.35C204.461 350.35 214.1 340.711 214.1 328.82C214.1 316.929 204.461 307.29 192.57 307.29C180.679 307.29 171.04 316.929 171.04 328.82C171.04 340.711 180.679 350.35 192.57 350.35Z" fill="white"/>
<path d="M274.67 350.35C286.561 350.35 296.2 340.711 296.2 328.82C296.2 316.929 286.561 307.29 274.67 307.29C262.779 307.29 253.14 316.929 253.14 328.82C253.14 340.711 262.779 350.35 274.67 350.35Z" fill="white"/>
<path d="M720.03 143.84H591.23V202.92H703.99V247.54H591.23V355.25H537.9V98.7H720.03V143.84Z" fill="black"/>
<path d="M914.54 299.48C913.26 310.75 907.39 322.2 896.94 333.81C880.67 352.28 857.9 361.52 828.62 361.52C804.45 361.52 783.13 353.74 764.66 338.17C746.19 322.6 736.95 297.27 736.95 262.18C736.95 229.3 745.29 204.09 761.96 186.54C778.63 169 800.27 160.22 826.88 160.22C842.68 160.22 856.91 163.18 869.58 169.11C882.24 175.04 892.7 184.39 900.95 197.17C908.38 208.44 913.21 221.51 915.42 236.38C916.7 245.09 917.22 257.64 916.99 274.03H786.97C787.67 293.09 793.65 306.45 804.92 314.12C811.77 318.89 820.02 321.27 829.67 321.27C839.89 321.27 848.2 318.37 854.59 312.56C858.08 309.42 861.15 305.07 863.83 299.49H914.55L914.54 299.48ZM865.39 241.27C864.58 228.14 860.6 218.18 853.45 211.38C846.3 204.58 837.44 201.18 826.87 201.18C815.37 201.18 806.45 204.78 800.12 211.99C793.79 219.2 789.81 228.96 788.18 241.27H865.39Z" fill="black"/>
<path d="M1037.41 319.87V356.99L1013.88 357.86C990.41 358.67 974.37 354.61 965.78 345.66C960.2 339.97 957.41 331.19 957.41 319.34V198.83H930.92V152.2H957.41V99.22H1006.56V152.2H1037.41V198.83H1006.56V302.78C1006.56 310.57 1007.55 315.42 1009.52 317.33C1011.49 319.25 1017.54 320.21 1027.65 320.21C1029.16 320.21 1030.76 320.18 1032.44 320.12C1034.12 320.06 1035.78 319.98 1037.41 319.86V319.87Z" fill="black"/>
<path d="M1233.66 233.43H1182.77C1181.84 226.34 1179.46 219.95 1175.62 214.26C1170.04 206.59 1161.39 202.76 1149.65 202.76C1132.92 202.76 1121.47 211.07 1115.31 227.68C1112.06 236.51 1110.43 248.25 1110.43 262.89C1110.43 277.53 1112.06 288.05 1115.31 296.53C1121.24 312.33 1132.39 320.23 1148.77 320.23C1160.39 320.23 1168.64 317.09 1173.52 310.82C1178.4 304.55 1181.36 296.41 1182.41 286.42H1233.13C1231.97 301.53 1226.51 315.82 1216.75 329.29C1201.18 351.02 1178.12 361.88 1147.56 361.88C1117 361.88 1094.52 352.82 1080.11 334.69C1065.7 316.56 1058.5 293.03 1058.5 264.1C1058.5 231.45 1066.46 206.06 1082.38 187.94C1098.3 169.81 1120.26 160.75 1148.26 160.75C1172.08 160.75 1191.57 166.1 1206.73 176.78C1221.89 187.47 1230.87 206.35 1233.66 233.42V233.43Z" fill="black"/>
<path d="M1439.49 243.71V355.25H1388.77V239.7C1388.77 229.48 1387.03 221.23 1383.54 214.95C1379.01 206.12 1370.41 201.7 1357.74 201.7C1345.07 201.7 1334.65 206.09 1327.85 214.86C1321.05 223.63 1317.65 236.15 1317.65 252.42V355.25H1268.15V99.22H1317.65V190.02C1324.85 178.98 1333.19 171.28 1342.66 166.93C1352.13 162.57 1362.09 160.39 1372.55 160.39C1384.28 160.39 1394.95 162.42 1404.53 166.49C1414.12 170.56 1421.99 176.77 1428.15 185.14C1433.38 192.23 1436.57 199.52 1437.74 207.01C1438.9 214.5 1439.48 226.73 1439.48 243.7L1439.49 243.71Z" fill="black"/>
<path d="M1543.37 152.17V198.01H1493V152.17H1543.37ZM1543.37 216.79V355.26H1493V216.79H1543.37Z" fill="#F42434"/>
<path d="M1678.44 319.87V356.99L1654.91 357.86C1631.44 358.67 1615.4 354.61 1606.81 345.66C1601.23 339.97 1598.44 331.19 1598.44 319.34V197.64H1571.95V152.2H1598.44V99.22H1647.59V152.2H1678.44V197.64H1647.59V302.78C1647.59 310.57 1648.58 315.42 1650.55 317.33C1652.52 319.25 1658.57 320.21 1668.68 320.21C1670.19 320.21 1671.79 320.18 1673.47 320.12C1675.15 320.06 1676.81 319.98 1678.44 319.86V319.87Z" fill="#F42434"/>
</svg>
